<svg xmlns="http://www.w3.org/2000/svg" width="22" height="22" viewBox="0 0 22 22"><defs><style>.a{fill:none;}.b{fill:#6395f9;}</style></defs><g transform="translate(-1369 -111)"><rect class="a" width="22" height="22" transform="translate(1369 111)"/><g transform="translate(1370 118)"><path class="b" d="M390.271,320.259a1.562,1.562,0,1,0,0-2.21A1.562,1.562,0,0,0,390.271,320.259Z" transform="translate(-381.375 -317.592)"/><path class="b" d="M70.379,422.8a12.081,12.081,0,0,0-6.232,5.7,1.163,1.163,0,0,0,.252,1.461.832.832,0,0,0,1.257-.292,10.37,10.37,0,0,1,5-4.753,4.766,4.766,0,0,1-.3-1.673C70.359,423.092,70.365,422.945,70.379,422.8Zm13.464,5.7a12.082,12.082,0,0,0-6.232-5.7c.013.145.02.29.02.437a4.767,4.767,0,0,1-.3,1.673,10.369,10.369,0,0,1,5,4.753.832.832,0,0,0,1.257.292,1.159,1.159,0,0,0,.252-1.458Z" transform="translate(-63.995 -421.455)"/></g></g></svg>