<svg xmlns="http://www.w3.org/2000/svg" width="22" height="22" viewBox="0 0 22 22"><defs><style>.a{fill:none;}.b{fill:#6395f9;}.c,.d{stroke:none;}.d{fill:#6395f9;}</style></defs><g transform="translate(-699 -210.3)"><rect class="a" width="22" height="22" transform="translate(699 210.3)"/><g class="b" transform="translate(524 -18.1)"><path class="c" d="M 177.1846008300781 248.5938873291016 L 176.9346008300781 248.5938873291016 L 176.4673156738281 248.5938873291016 L 176.0000152587891 248.5938873291016 L 175.7500152587891 248.5938873291016 L 175.7500152587891 248.3438873291016 C 175.7500152587891 244.8491516113281 177.0498352050781 241.5398559570312 179.4100189208984 239.0256042480469 C 181.7129516601562 236.5723571777344 184.8362121582031 235.0753021240234 188.2266387939453 234.7941131591797 L 188.2266387939453 230.3999633789062 L 188.2266387939453 229.7937622070312 L 188.6539611816406 230.2237396240234 L 196.1773376464844 237.7938537597656 L 196.35302734375 237.9706268310547 L 196.1767883300781 238.1468505859375 L 188.6534118652344 245.6702117919922 L 188.2266387939453 246.0969848632812 L 188.2266387939453 245.4934387207031 L 188.2266387939453 241.2217254638672 C 185.2689666748047 241.3684997558594 182.5122833251953 242.1723785400391 180.4394836425781 243.4961853027344 C 178.3405456542969 244.8366851806641 177.1846008300781 246.5583038330078 177.1846008300781 248.3438873291016 L 177.1846008300781 248.5938873291016 Z M 189.6612091064453 233.2932739257812 L 189.6612091064453 235.9607238769531 L 189.6612091064453 236.1844940185547 L 189.4388122558594 236.2091979980469 L 189.0182495117188 236.2559204101562 L 189.0077362060547 236.2570953369141 L 188.9971618652344 236.2573699951172 C 184.2312164306641 236.3817138671875 180.1373901367188 239.1312561035156 178.2621765136719 243.3652191162109 C 179.2849731445312 242.4449768066406 180.5982666015625 241.6592102050781 182.1236724853516 241.0609283447266 C 184.1495513916016 240.2663421630859 186.5063171386719 239.8220825195312 188.939208984375 239.7761840820312 L 189.4112091064453 239.7761383056641 L 189.6612091064453 239.7761383056641 L 189.6612091064453 240.0261383056641 L 189.6612091064453 242.6468811035156 L 194.3380432128906 237.9700775146484 L 189.6612091064453 233.2932739257812 Z"/><path class="d" d="M 176.9346008300781 248.3438873291016 C 176.9346008300781 244.4653930664062 182.0747680664062 241.1943817138672 188.4766387939453 240.9607391357422 L 188.4766387939453 245.4934387207031 L 196.0000152587891 237.9700775146484 L 188.4766387939453 230.3999633789062 L 188.4766387939453 235.0261535644531 C 181.4205780029297 235.4934539794922 176.0000152587891 241.2410888671875 176.0000152587891 248.3438873291016 L 176.9346008300781 248.3438873291016 M 189.4112091064453 232.6897125244141 L 194.6916046142578 237.9700775146484 L 189.4112091064453 243.2504425048828 L 189.4112091064453 240.0261383056641 L 188.9439239501953 240.0261383056641 C 183.9906463623047 240.1195983886719 179.7383117675781 241.8485717773438 177.5887908935547 244.4186706542969 C 179.1775817871094 239.6055908203125 183.6168212890625 236.1476440429688 188.9906463623047 236.0074615478516 L 189.4112091064453 235.9607238769531 L 189.4112091064453 232.6897125244141 M 177.4346008300781 248.8438873291016 L 175.5000152587891 248.8438873291016 L 175.5000152587891 248.3438873291016 C 175.5000152587891 244.7853393554688 176.8238830566406 241.415283203125 179.2277526855469 238.8544921875 C 181.5212097167969 236.4113464355469 184.6129913330078 234.8993682861328 187.9766387939453 234.5658416748047 L 187.9766387939453 229.1875610351562 L 196.7060241699219 237.9711608886719 L 187.9766387939453 246.7005310058594 L 187.9766387939453 241.4863433837891 C 182.1177978515625 241.859375 177.4346008300781 244.8727416992188 177.4346008300781 248.3438873291016 L 177.4346008300781 248.8438873291016 Z M 189.9112091064453 233.8968048095703 L 189.9112091064453 236.4082489013672 L 189.0036926269531 236.5072937011719 C 184.7281951904297 236.6188201904297 181.0053405761719 238.8867492675781 178.9986877441406 242.4532318115234 C 179.8745880126953 241.8225555419922 180.8963012695312 241.2737731933594 182.0323791503906 240.8281860351562 C 184.0855712890625 240.0229034423828 186.4722747802734 239.5726928710938 188.9344940185547 239.5262298583984 L 188.9439239501953 239.5261383056641 L 189.9112091064453 239.5261383056641 L 189.9112091064453 242.0433502197266 L 193.9844970703125 237.9700775146484 L 189.9112091064453 233.8968048095703 Z"/></g></g></svg>