<svg xmlns="http://www.w3.org/2000/svg" width="24" height="24" viewBox="0 0 24 24">
    <defs>
        <style>.a{fill:none;}
        </style>
    </defs>
    <g transform="translate(-1296 -303)">
        <rect class="a" width="24" height="24" transform="translate(1296 303)"/>
        <path class="b"
              d="M.688,11.09a.687.687,0,0,0,.688-.687V9.2A.688.688,0,0,0,0,9.2v1.2A.687.687,0,0,0,.688,11.09ZM19.938,0H2.063A2.066,2.066,0,0,0,0,2.063v4.86a.688.688,0,0,0,1.375,0V2.063a.69.69,0,0,1,.688-.687H19.938a.69.69,0,0,1,.687.688V19.938a.689.689,0,0,1-.6.683L11.2,17.905a.681.681,0,0,0-.4,0L1.977,20.621a.689.689,0,0,1-.6-.683V12.508a.688.688,0,0,0-1.375,0v7.429A2.066,2.066,0,0,0,2.063,22a.707.707,0,0,0,.2-.03L11,19.282l8.736,2.688a.707.707,0,0,0,.2.03A2.066,2.066,0,0,0,22,19.938V2.063A2.066,2.066,0,0,0,19.938,0Zm-2.78,8.607a.691.691,0,0,0-.554-.468l-3.446-.5-1.54-3.122a.688.688,0,0,0-1.233,0L8.843,7.638l-3.446.5a.688.688,0,0,0-.38,1.173l2.494,2.43-.589,3.431a.686.686,0,0,0,1,.724L11,14.279l3.083,1.62a1.3,1.3,0,0,0,.724-.052.684.684,0,0,0,.273-.672l-.589-3.431c2.681-2.615,2.748-2.887,2.666-3.137Z"
              transform="translate(1297 304)"/>
    </g>
</svg>

