<svg xmlns="http://www.w3.org/2000/svg" width="22" height="22" viewBox="0 0 22 22"><defs><style>.a,.b{fill:none;}.c,.d{stroke:none;}.d{fill:#6395f9;}</style></defs><g transform="translate(-214 -293.001)"><rect class="a" width="22" height="22" transform="translate(214 293.001)"/><g class="b" transform="translate(7085.772 143.247)"><path class="c" d="M-6863.678,152.771c-5.953.472-8.4,4.853-6.418,7.206,1.6,1.9,3.539.471,7.773,2.047,4.125,2.416,3.948,3.536,6.423,5.421,2.357,2.181,5.54,1.474,5.083-4.34C-6851.479,156.071-6857.078,152.476-6863.678,152.771Z"/><path class="d" d="M -6862.9306640625 154.453857421875 C -6863.14208984375 154.453857421875 -6863.35791015625 154.4585113525391 -6863.572265625 154.4676971435547 C -6866.72314453125 154.7254180908203 -6868.41748046875 156.1946563720703 -6868.91162109375 157.3775177001953 C -6869.08544921875 157.7943420410156 -6869.20703125 158.3934631347656 -6868.79638671875 158.8804779052734 C -6868.43603515625 159.3080902099609 -6868.14306640625 159.3610076904297 -6866.80810546875 159.4411010742188 C -6865.58984375 159.51416015625 -6863.92138671875 159.6142578125 -6861.72998046875 160.4296722412109 L -6861.59130859375 160.4812316894531 L -6861.4638671875 160.5559539794922 C -6858.70458984375 162.1716766357422 -6857.650390625 163.3248138427734 -6856.720703125 164.3421936035156 C -6856.17333984375 164.9412231445312 -6855.70068359375 165.4585571289062 -6854.869140625 166.092041015625 L -6854.8046875 166.1412200927734 L -6854.7451171875 166.1963195800781 C -6854.19970703125 166.7005615234375 -6853.705078125 166.8802185058594 -6853.42333984375 166.8802185058594 C -6853.27197265625 166.8802185058594 -6853.1748046875 166.8357086181641 -6853.06396484375 166.7159881591797 C -6852.8857421875 166.5231323242188 -6852.31982421875 165.7040557861328 -6852.51025390625 163.2512512207031 C -6852.771484375 160.5117950439453 -6853.91796875 158.2521667480469 -6855.82666015625 156.7164001464844 C -6857.66650390625 155.2363433837891 -6860.12255859375 154.4539794921875 -6862.9306640625 154.453857421875 L -6862.9306640625 154.453857421875 M -6862.93017578125 152.7538757324219 C -6856.66015625 152.7541046142578 -6851.4541015625 156.3381195068359 -6850.81640625 163.1045379638672 C -6850.35986328125 168.9179992675781 -6853.54296875 169.6248779296875 -6855.8994140625 167.4442596435547 C -6858.37451171875 165.5584716796875 -6858.197265625 164.4386749267578 -6862.32275390625 162.02294921875 C -6866.5576171875 160.4472045898438 -6868.49609375 161.8741912841797 -6870.09619140625 159.9762420654297 C -6872.07958984375 157.6234283447266 -6869.63037109375 153.2422332763672 -6863.677734375 152.7706604003906 C -6863.4267578125 152.7594451904297 -6863.177734375 152.7538604736328 -6862.93017578125 152.7538757324219 Z"/></g></g></svg>