<svg xmlns="http://www.w3.org/2000/svg" width="22" height="22" viewBox="0 0 22 22"><defs><style>.a{fill:none;}.b{fill:#6395f9;}</style></defs><g transform="translate(-184 -233)"><rect class="a" width="22" height="22" transform="translate(184 233)"/><path class="b" d="M-7867.039,4633.2a15.769,15.769,0,0,1-4.206-.478,5.7,5.7,0,0,1-3.338-2.179c-1.345-1.985-1.067-4.924.872-9.248.764-1.7.769-2.994.015-3.95s-2.323-1.636-4.432-1.931a18.2,18.2,0,0,0-5.512.1,1,1,0,0,1-1.165-.795,1,1,0,0,1,.795-1.165c3.319-.626,9.481-.487,11.879,2.553.853,1.082,1.586,3,.239,6-1.607,3.582-1.947,5.974-1.041,7.313.8,1.183,2.79,1.78,5.916,1.78q.555,0,1.156-.024h.042a1,1,0,0,1,1,.956,1,1,0,0,1-.955,1.037Q-7866.433,4633.2-7867.039,4633.2Z" transform="translate(8069.822 -4379.256)"/></g></svg>