<svg xmlns="http://www.w3.org/2000/svg" width="22" height="22" viewBox="0 0 22 22"><defs><style>.a{fill:none;}.b{fill:#6395f9;}</style></defs><g transform="translate(-639 -210.3)"><rect class="a" width="22" height="22" transform="translate(661 210.3) rotate(90)"/><path class="b" d="M158.881,7.484l4.548-5.525,4.548,5.525h-2.048V18.5h-5V7.484Zm10.79,1.5a.7.7,0,0,0,.541-1.145L163.969.256a.7.7,0,0,0-1.081,0l-6.242,7.583a.7.7,0,0,0,.54,1.145h2.242V19.3a.7.7,0,0,0,.7.7h6.6a.7.7,0,0,0,.7-.7V8.984h2.242Z" transform="translate(660.001 57.815) rotate(90)"/></g></svg>