<svg xmlns="http://www.w3.org/2000/svg" width="22" height="22" viewBox="0 0 22 22"><defs><style>.a{fill:none;}.b{fill:#6395f9;}</style></defs><g transform="translate(-214 -233)"><rect class="a" width="22" height="22" transform="translate(214 233)"/><path class="b" d="M-8014.875,4664.281a1.039,1.039,0,0,1-.833-.416,16.742,16.742,0,0,0-3.053-2.832c-.178.156-.362.313-.552.472-4.129,3.441-8.533,3.117-11.279,1.665-2.125-1.123-3.393-2.936-3.23-4.618.077-.8.553-2.24,2.87-2.941,3.79-1.147,7.749.344,10.4,1.8.549.3,1.08.619,1.587.948,1.442-1.5,2.075-2.771,1.761-3.6-.4-1.056-2.735-2.222-7.966-2.222q-.555,0-1.154.018c-.165,0-.33.008-.491.008-3.186,0-5.606-.968-6.528-2.629a2.736,2.736,0,0,1,.131-2.928,5.815,5.815,0,0,1,3.582-2.12,19.347,19.347,0,0,1,6.613-.219,1.04,1.04,0,0,1,.918,1.149,1.043,1.043,0,0,1-1.149.917c-5.348-.6-7.692.614-8.233,1.426a.666.666,0,0,0-.043.765c.44.793,2.057,1.558,4.705,1.558.142,0,.286,0,.433-.006a25.471,25.471,0,0,1,7.017.61c2.212.587,3.6,1.574,4.111,2.936a4.113,4.113,0,0,1-.493,3.567,10.875,10.875,0,0,1-1.5,1.982,17.668,17.668,0,0,1,3.2,3.049,1.04,1.04,0,0,1-.208,1.456A1.036,1.036,0,0,1-8014.875,4664.281Zm-13.234-7a7.728,7.728,0,0,0-2.24.318c-.606.184-1.343.532-1.4,1.15-.066.687.646,1.793,2.133,2.579,1.042.551,4.772,2.079,8.976-1.424l.1-.087q-.488-.3-1.009-.586A14.276,14.276,0,0,0-8028.109,4657.283Z" transform="translate(8248.836 -4410.488)"/></g></svg>