<svg xmlns="http://www.w3.org/2000/svg" width="22" height="22" viewBox="0 0 22 22"><defs><style>.a,.b{fill:none;}.b{stroke-miterlimit:10;}.c,.d{stroke:none;}.d{fill:#6395f9;}</style></defs><g transform="translate(-304 -293.001)"><rect class="a" width="22" height="22" transform="translate(304 293.001)"/><g class="b" transform="translate(7316.046 61.426)"><path class="c" d="M-6999.743,235.575c3.568-.044,6.593,2.715,8.436,5.77a1.245,1.245,0,0,1,.252.818c-.074.432-.556.67-.742,1.068-.217.465.017,1,.123,1.5.437,2.062-1.538,4.021-3.625,4.318s-4.149-.6-6.009-1.593-3.724-2.131-5.817-2.376a3.4,3.4,0,0,1-1.356-.305,2.775,2.775,0,0,1-.983-1.361l-1.338-3.006a1.978,1.978,0,0,1-.24-.91,1.743,1.743,0,0,1,.75-1.146,6.809,6.809,0,0,1,3.08-1.418A43,43,0,0,1-6999.743,235.575Z"/><path class="d" d="M -6999.658203125 237.2747192382812 C -6999.67919921875 237.2747192382812 -6999.70068359375 237.2748718261719 -6999.7216796875 237.2751312255859 C -7001.61279296875 237.2987976074219 -7005.453125 238.2234191894531 -7006.77294921875 238.5776519775391 L -7006.841796875 238.5960998535156 L -7006.91162109375 238.6087493896484 C -7007.7568359375 238.7614135742188 -7008.5546875 239.1287689208984 -7009.21923828125 239.6714630126953 C -7009.23291015625 239.6825408935547 -7009.24560546875 239.6930999755859 -7009.25732421875 239.7031860351562 C -7009.2548828125 239.7087249755859 -7009.2529296875 239.7139434814453 -7009.25048828125 239.7188110351562 L -7007.91259765625 242.7248687744141 C -7007.84912109375 242.8679351806641 -7007.70703125 243.1874542236328 -7007.61181640625 243.3081512451172 C -7007.51171875 243.3327484130859 -7007.30712890625 243.3537902832031 -7007.16552734375 243.3683319091797 C -7007.08642578125 243.3764343261719 -7007.0078125 243.3845825195312 -7006.92822265625 243.3938293457031 C -7004.76318359375 243.6473541259766 -7002.939453125 244.6387786865234 -7001.17529296875 245.5975646972656 C -7000.95263671875 245.7188262939453 -7000.72998046875 245.8398284912109 -7000.50732421875 245.9587707519531 C -6999.16552734375 246.6757202148438 -6997.59619140625 247.4086608886719 -6996.12744140625 247.4086608886719 C -6995.92724609375 247.4086608886719 -6995.7294921875 247.3949279785156 -6995.5390625 247.3678894042969 C -6994.80419921875 247.2634124755859 -6994.05419921875 246.8031005859375 -6993.62890625 246.1951904296875 C -6993.44482421875 245.9318389892578 -6993.24462890625 245.5254974365234 -6993.337890625 245.0858001708984 C -6993.35205078125 245.0177307128906 -6993.37548828125 244.9302673339844 -6993.3994140625 244.8376617431641 C -6993.53759765625 244.3126220703125 -6993.76806640625 243.4338226318359 -6993.3369140625 242.5094299316406 C -6993.224609375 242.2701416015625 -6993.08740234375 242.0732727050781 -6992.95556640625 241.9126434326172 C -6994.806640625 239.0013275146484 -6997.29248046875 237.2747192382812 -6999.658203125 237.2747192382812 M -6999.658203125 235.5747222900391 C -6996.12646484375 235.5747222900391 -6993.1357421875 238.3140258789062 -6991.3076171875 241.345458984375 C -6991.1572265625 241.5956420898438 -6991.005859375 241.8761444091797 -6991.0556640625 242.1637268066406 C -6991.1298828125 242.5959320068359 -6991.611328125 242.8336334228516 -6991.7978515625 243.2313232421875 C -6992.0146484375 243.6959381103516 -6991.78125 244.2311859130859 -6991.6748046875 244.7332153320312 C -6991.23828125 246.7956848144531 -6993.212890625 248.7542724609375 -6995.2998046875 249.0509796142578 C -6997.390625 249.3479156494141 -6999.44921875 248.4515991210938 -7001.30859375 247.4580993652344 C -7003.16796875 246.4644622802734 -7005.0322265625 245.3274688720703 -7007.1259765625 245.0822906494141 C -7007.5908203125 245.0282592773438 -7008.080078125 245.0128784179688 -7008.482421875 244.7768402099609 C -7008.9736328125 244.4892730712891 -7009.234375 243.9361419677734 -7009.4658203125 243.416259765625 L -7010.8037109375 240.4100189208984 C -7010.9326171875 240.1207733154297 -7011.064453125 239.8165740966797 -7011.0439453125 239.5003356933594 C -7011.013671875 239.0311431884766 -7010.658203125 238.6513214111328 -7010.2939453125 238.3541717529297 C -7009.4091796875 237.6319122314453 -7008.3388671875 237.1390686035156 -7007.2138671875 236.9358367919922 C -7007.2138671875 236.9358367919922 -7002.265625 235.6068420410156 -6999.7431640625 235.5752563476562 C -6999.71484375 235.5749053955078 -6999.6865234375 235.5747222900391 -6999.658203125 235.5747222900391 Z"/></g></g></svg>