<svg xmlns="http://www.w3.org/2000/svg" width="22" height="22" viewBox="0 0 22 22"><defs><style>.a{fill:none;}.b{fill:#6395f9;}</style></defs><g transform="translate(-336 -295)"><rect class="a" width="22" height="22" transform="translate(336 295)"/><path class="b" d="M-6766.024,435.429c.162-.1.33-.206.488-.32,2.3-1.717,2.9-3.666,2.714-4.816a1.288,1.288,0,0,0-.813-1.1c-.483-.156-.735-.055-1.8.526a15.234,15.234,0,0,1-4.658,1.714,16.011,16.011,0,0,1-5.482-.633,11.546,11.546,0,0,0-2.27-.457l-.074-.007-.074-.013a2,2,0,0,0-1.347.109.4.4,0,0,0-.2.3c-.045.234-.087,1.139,1.245,2.936a8.414,8.414,0,0,0,5.706,3.44,10.156,10.156,0,0,0,6.567-1.679h0m.819,1.311c-4.833,3.021-10.575,2.766-14.326-2.143-3.153-4.261-1.04-6.341,1.828-5.794,2.816.261,5.154,1.394,7.564,1.084s4.831-2.859,6.979-2.166c2.659.86,2.886,5.415-1.477,8.647-.189.132-.378.256-.569.375Z" transform="translate(7118.099 -127.599)"/></g></svg>