<svg xmlns="http://www.w3.org/2000/svg" width="24" height="24" viewBox="0 0 24 24">
    <defs>
        <style>
            <!--            .a{fill:#82899c;}-->
            .b{fill:none;}</style>
    </defs>
    <g transform="translate(-1324 -311)">
        <path class="a"
              d="M-5431.7-2999.538a.292.292,0,0,1-.257-.154.292.292,0,0,1,.015-.3l6.928-10.435a.29.29,0,0,1,.243-.13.291.291,0,0,1,.244.13l.894,1.348a.291.291,0,0,1,.05.162v1.8a.293.293,0,0,1-.209.279.292.292,0,0,1-.328-.118l-.651-.98-4.532,6.823h9.063l-1.676-2.523a.291.291,0,0,1-.013-.3.291.291,0,0,1,.256-.154h1.193a.291.291,0,0,1,.243.132l2.637,3.97a.294.294,0,0,1,.014.3.294.294,0,0,1-.258.154Zm8.467-4.907a.292.292,0,0,1-.292-.292v-9.938a.292.292,0,0,1,.292-.292h9.938a.292.292,0,0,1,.292.292v9.938a.292.292,0,0,1-.292.292Zm1.285-1.58h7.368v-7.365h-7.368Zm-13.055-7.713a5.268,5.268,0,0,1,5.262-5.262,5.267,5.267,0,0,1,5.261,5.262,5.266,5.266,0,0,1-5.261,5.26A5.267,5.267,0,0,1-5435-3013.739Zm1.579,0a3.687,3.687,0,0,0,3.683,3.683,3.689,3.689,0,0,0,3.683-3.683,3.688,3.688,0,0,0-3.683-3.683A3.686,3.686,0,0,0-5433.421-3013.739Z"
              transform="translate(6760 3333)"/>
        <rect class="b" width="24" height="24" transform="translate(1324 311)"/>
    </g>
</svg>
