<?xml version="1.0" standalone="no"?><!DOCTYPE svg PUBLIC "-//W3C//DTD SVG 1.1//EN" "http://www.w3.org/Graphics/SVG/1.1/DTD/svg11.dtd">
<svg t="1670412465757" class="icon" viewBox="0 0 1024 1024" version="1.1" xmlns="http://www.w3.org/2000/svg" p-id="3669"
     xmlns:xlink="http://www.w3.org/1999/xlink" width="48" height="48">
    <path d="M512 1024C229.248 1024 0 794.752 0 512S229.248 0 512 0s512 229.248 512 512-229.248 512-512 512z m42.666667-486.869333V298.538667C554.666667 275.328 535.552 256 512 256c-23.722667 0-42.666667 19.029333-42.666667 42.538667v256.256a41.984 41.984 0 0 0 12.202667 29.866666l121.258667 121.258667a42.368 42.368 0 0 0 60.032-0.298667 42.666667 42.666667 0 0 0 0.298666-60.032L554.666667 537.130667z"
         p-id="3670"></path>
</svg>