<?xml version="1.0" standalone="no"?><!DOCTYPE svg PUBLIC "-//W3C//DTD SVG 1.1//EN" "http://www.w3.org/Graphics/SVG/1.1/DTD/svg11.dtd">
<svg t="1670414274537" class="icon" viewBox="0 0 1024 1024" version="1.1"
    xmlns="http://www.w3.org/2000/svg" p-id="4529"
    xmlns:xlink="http://www.w3.org/1999/xlink" width="48" height="48">
    <path d="M979.40777 184.381994L839.521431 44.495655c-30.896983-30.996973-73.192852-46.69544-118.98838-44.195684-43.995704 2.399766-85.891612 21.39791-118.088468 53.594766L53.898152 602.441168c-0.299971 0.299971-0.599941 0.599941-0.799922 0.899912-67.193438 67.99336-71.093057 173.683039-8.59916 236.276926l139.886339 139.886339c28.797188 28.897178 67.493409 44.495655 109.589298 44.495655 3.099697 0 6.199395-0.09999 9.399082-0.299971 43.995704-2.399766 85.891612-21.39791 118.088468-53.594766l548.646421-548.646421c67.89337-67.99336 72.09296-174.38297 9.299092-237.076848zM906.914849 358.165023l-27.497314 27.497315-45.695538-45.695538c-17.498291-17.498291-45.695538-17.498291-63.193829 0s-17.498291 45.695538 0 63.193829l45.695538 45.695537-74.292745 74.292745-91.491065-91.491065c-17.498291-17.498291-45.695538-17.498291-63.193829 0s-17.498291 45.695538 0 63.193829l91.491065 91.491065-89.49126 89.491261-45.695538-45.695538c-17.498291-17.498291-45.695538-17.498291-63.193828 0-17.498291 17.398301-17.498291 45.695538 0 63.193829l45.695537 45.695537-74.192755 74.192755-91.491065-91.491065c-17.498291-17.498291-45.695538-17.498291-63.193829 0s-17.498291 45.695538 0 63.193828l91.491066 91.491066-30.497022 30.497021c-16.598379 16.598379-37.796309 26.397422-59.694171 27.497315-20.298018 0.899912-38.19627-5.399473-50.99502-18.098232l-139.886339-139.98633C80.195584 748.926863 84.495164 698.231813 116.99199 665.734987c0.19998-0.19998 0.499951-0.499951 0.699932-0.799922l547.94649-547.94649c16.598379-16.598379 37.796309-26.297432 59.69417-27.497314 19.698076-1.099893 38.19627 5.299482 50.99502 18.098232l139.98633 139.98633c27.397324 27.397324 23.097744 78.092374-9.399083 110.5892z"  p-id="4530"></path>
</svg>