<svg xmlns="http://www.w3.org/2000/svg" width="22" height="22" viewBox="0 0 22 22"><defs><style>.a,.b{fill:none;}.b{stroke-miterlimit:10;}.c,.d{stroke:none;}.d{fill:#6395f9;}</style></defs><g transform="translate(-154 -293.001)"><rect class="a" width="22" height="22" transform="translate(154 293.001)"/><g class="b" transform="translate(7155.25 153.001)"><path class="c" d="M-6998.394,143a9.949,9.949,0,0,0-1.856,5.8,10,10,0,0,0,10,10,10,10,0,0,0,10-10,9.947,9.947,0,0,0-1.857-5.8Z"/><path class="d" d="M -6997.46630859375 144.6999969482422 C -6998.177734375 145.9456634521484 -6998.5498046875 147.3473510742188 -6998.5498046875 148.7999420166016 C -6998.5498046875 153.3765106201172 -6994.82666015625 157.0998382568359 -6990.25 157.0998382568359 C -6985.67333984375 157.0998382568359 -6981.9501953125 153.3765106201172 -6981.9501953125 148.7999420166016 C -6981.9501953125 147.3475036621094 -6982.32275390625 145.9457855224609 -6983.0341796875 144.6999969482422 L -6997.46630859375 144.6999969482422 M -6998.39404296875 143 L -6982.10693359375 143 C -6980.93896484375 144.635986328125 -6980.25 146.636962890625 -6980.25 148.7999420166016 C -6980.25 154.3226928710938 -6984.7275390625 158.7998352050781 -6990.25 158.7998352050781 C -6995.77294921875 158.7998352050781 -7000.25 154.3226928710938 -7000.25 148.7999420166016 C -7000.25 146.636962890625 -6999.5615234375 144.635986328125 -6998.39404296875 143 Z"/></g></g></svg>