<svg xmlns="http://www.w3.org/2000/svg" width="24" height="24" viewBox="0 0 24 24">
    <defs>
        <style>
            <!--            .a{fill:#82899c;}-->
            .b{fill:none;}</style>
    </defs>
    <g transform="translate(-1295 -148)">
        <g transform="translate(1296 149)">
            <path class="a"
                  d="M67.145,81.432V68.583a2.365,2.365,0,0,0,1.438-1.438H81.413a2.358,2.358,0,1,0,.009-1.572H68.583a2.359,2.359,0,1,0-3.01,3.01v12.85a2.359,2.359,0,1,0,3.011,3.008h1.706V82.868H68.582A2.365,2.365,0,0,0,67.145,81.432Z"
                  transform="translate(-64 -64)"/>
            <path class="a"
                  d="M422.341,348.522a.614.614,0,0,0-.869,0l-.8.8a.614.614,0,0,0,0,.869l2.477,2.477a.614.614,0,0,0,.869,0l.8-.8a.614.614,0,0,0,0-.869ZM411.578,361.77l3.69-.353-3.346-3.345Zm8.754-10.831a.9.9,0,0,0-1.277,0l-4.4,4.4-1.592,1.592-.638.638.638.638,2.069,2.069.638.638.638-.638L418,358.682l4.4-4.4a.9.9,0,0,0,0-1.277Z"
                  transform="translate(-403.08 -341.402)"/>
        </g>
        <rect class="b" width="24" height="24" rx="12" transform="translate(1295 148)"/>
    </g>
</svg>
