<svg xmlns="http://www.w3.org/2000/svg" width="22" height="22" viewBox="0 0 22 22"><defs><style>.a{fill:none;}.b{fill:#6395f9;}</style></defs><g transform="translate(7459 -4295)"><rect class="a" width="22" height="22" transform="translate(-7459 4295)"/><g transform="translate(-7648 4106)"><path class="b" d="M200,192a8,8,0,1,0,8,8A8,8,0,0,0,200,192Zm0,15.2a7.2,7.2,0,1,1,7.2-7.2A7.2,7.2,0,0,1,200,207.2Z" transform="translate(0 0)"/><path class="b" d="M308,308m-4,0a4,4,0,1,0,4-4A4,4,0,0,0,304,308Z" transform="translate(-108 -108)"/></g></g></svg>