<svg xmlns="http://www.w3.org/2000/svg" width="24" height="24" viewBox="0 0 24 24">
    <defs>
        <style>.a{fill:none;} </style>
    </defs>
    <g transform="translate(-1364 -106)">
        <rect class="a" width="24" height="24" transform="translate(1364 106)"/>
        <path class="b"
              d="M18.7,0H3.3A3.3,3.3,0,0,0,0,3.3V18.7A3.308,3.308,0,0,0,3.3,22H18.7A3.308,3.308,0,0,0,22,18.7V3.3A3.3,3.3,0,0,0,18.7,0ZM16.631,1.532V9.281H5.371V1.532ZM20.468,18.7A1.764,1.764,0,0,1,18.7,20.46H3.3A1.764,1.764,0,0,1,1.532,18.7V3.3A1.77,1.77,0,0,1,3.3,1.532h.536v8.519a.762.762,0,0,0,.766.762H17.4a.762.762,0,0,0,.767-.762V1.532H18.7A1.77,1.77,0,0,1,20.468,3.3ZM13.956,7.637a.77.77,0,0,0,.766-.77V3.708a.767.767,0,0,0-1.533,0V6.867a.77.77,0,0,0,.765.77ZM5.5,14.143h11a.786.786,0,0,1,0,1.572H5.5a.786.786,0,1,1,0-1.572Z"
              transform="translate(1365 107)"/>
    </g>
</svg>
