<svg xmlns="http://www.w3.org/2000/svg" width="22" height="22" viewBox="0 0 22 22"><defs><style>.a,.b{fill:none;}.b{stroke-miterlimit:10;}.c,.d{stroke:none;}.d{fill:#6395f9;}</style></defs><g transform="translate(-184 -293.001)"><rect class="a" width="22" height="22" transform="translate(184 293.001)"/><g class="b" transform="translate(7187 172.001)"><path class="c" d="M-6992,122a10,10,0,0,0-10,10,10,10,0,0,0,10,10,10,10,0,0,0,10-10h-10Z"/><path class="d" d="M -6993.7001953125 123.875 C -6997.46435546875 124.6614990234375 -7000.2998046875 128.0057678222656 -7000.2998046875 132 C -7000.2998046875 136.5766296386719 -6996.57666015625 140.3000030517578 -6992 140.3000030517578 C -6988.005859375 140.3000030517578 -6984.66162109375 137.4641265869141 -6983.875 133.6999969482422 L -6993.7001953125 133.6999969482422 L -6993.7001953125 123.875 M -6992 122 L -6992 132 L -6982 132 C -6982 137.5227966308594 -6986.4775390625 142 -6992 142 C -6997.5224609375 142 -7002 137.5227966308594 -7002 132 C -7002 126.4772033691406 -6997.5224609375 122 -6992 122 Z"/></g></g></svg>