<?xml version="1.0" standalone="no"?><!DOCTYPE svg PUBLIC "-//W3C//DTD SVG 1.1//EN" "http://www.w3.org/Graphics/SVG/1.1/DTD/svg11.dtd"><svg t="1670414038057" class="icon" viewBox="0 0 1024 1024" version="1.1" xmlns="http://www.w3.org/2000/svg" p-id="2975" xmlns:xlink="http://www.w3.org/1999/xlink" width="48" height="48"><path d="M928.0608 0a32 32 0 0 1 31.488 26.24L960.0608 32V64h32a32 32 0 0 1 5.76 63.488L992.0608 128H960.0608v662.144a169.856 169.856 0 0 1-159.104 169.536l-10.752 0.32H128.0608v32a32 32 0 0 1-26.24 31.488L96.0608 1024a32 32 0 0 1-31.488-26.24L64.0608 992V960H32.0608a32 32 0 0 1-5.76-63.488L32.0608 896H64.0608V233.856a169.856 169.856 0 0 1 159.104-169.536L233.9168 64H896.0608V32a32 32 0 0 1 32-32zM896.0608 128H233.9168c-55.36 0-100.864 42.56-105.472 96.704L128.0608 233.856V896h662.144c55.36 0 100.864-42.56 105.472-96.704l0.384-9.152V128z m-240.32 290.176a32 32 0 0 1 9.984 10.752l203.008 355.2a32 32 0 0 1-27.84 47.872H183.8048a32 32 0 0 1-27.648-48.128l170.688-292.672a32 32 0 0 1 53.888-2.24l70.144 100.16a32 32 0 0 0 52.8-0.64l107.648-161.408a32 32 0 0 1 44.416-8.896z m-19.84 87.488L556.8608 624.064a96 96 0 0 1-158.528 1.792l-41.408-59.264L239.4208 768h546.304L635.9008 505.664zM288.0608 192a96 96 0 1 1 0 192 96 96 0 0 1 0-192z m0 64a32 32 0 1 0 0 64 32 32 0 0 0 0-64z" p-id="2976"></path></svg>