<svg xmlns="http://www.w3.org/2000/svg" width="22" height="22" viewBox="0 0 22 22"><defs><style>.a{fill:none;}.b{fill:#6395f9;}</style></defs><g transform="translate(-729 -210.3)"><rect class="a" width="22" height="22" transform="translate(729 210.3)"/><path class="b" d="M72.382,82l-.374-5.849-5.42-2.883,1.928-.5a29.517,29.517,0,0,0,10.112-5.19L76.744,65.62,86.384,62,82.977,72.1l-1.5-1.556c-3.064,4.336-7.807,9.932-7.859,9.991L72.382,82ZM70.7,73.7l2.8,1.487.183,2.862c1.755-2.124,4.984-6.109,7.064-9.157l.537-.787,1.043,1.084L83.873,64.6,79.49,66.242l1.368,1.422-.591.537A29.08,29.08,0,0,1,70.7,73.7Z" transform="translate(663.412 149.301)"/></g></svg>