<svg xmlns="http://www.w3.org/2000/svg" width="24" height="24" viewBox="0 0 24 24">
    <defs>
        <style> .b{fill:none;}</style>
    </defs>
    <g transform="translate(-1296 -206)">
        <path class="a"
              d="M212.911,163.211h-10.7v-.91q.7-.252,1.427-.44a15.075,15.075,0,0,1,1.554-.316v-18.7H201.14l-1.7,4.5h-.8c-.064-.419-.118-.9-.161-1.431s-.08-1.077-.113-1.635-.058-1.1-.079-1.632-.033-1.012-.033-1.432h18.615c0,.42-.012.893-.033,1.415s-.049,1.064-.082,1.619-.063,1.1-.1,1.635-.08,1.023-.146,1.462h-.843l-1.684-4.5h-4.024v18.7c.555.106,1.075.21,1.554.316a7.768,7.768,0,0,1,1.394.44v.909Z"
              transform="translate(1100.744 65.789)"/>
        <rect class="b" width="24" height="24" transform="translate(1296 206)"/>
    </g>
</svg>
