<?xml version="1.0" standalone="no"?>
<!DOCTYPE svg PUBLIC "-//W3C//DTD SVG 1.1//EN" "http://www.w3.org/Graphics/SVG/1.1/DTD/svg11.dtd">
<svg t="1692423975344" class="icon" viewBox="0 0 1024 1024" version="1.1" xmlns="http://www.w3.org/2000/svg" p-id="7235"
     width="128" height="128" xmlns:xlink="http://www.w3.org/1999/xlink">
    <path d="M461.412046 886.324966v-2.354023 2.354023z m54.813425-57.791265a55.390161 55.390161 0 0 0-55.519632 55.437242v0.706206c0 6.308782 4.861057 11.21692 11.110989 11.21692 6.238161 0 11.099218-4.908138 11.099218-11.21692v-0.706206c0-18.243678 14.571402-33.686069 33.309425-33.686069s33.309425 15.442391 33.309426 33.686069v0.706206c0 6.308782 4.872828 11.21692 11.110988 11.21692s11.099218-4.908138 11.099218-11.21692v-0.706206c0-30.166805-24.976184-55.437241-55.519632-55.437242zM387.142621 709.573149c-15.265839-3.519264-38.170483-2.813057-43.031541 13.323771-2.777747 9.828046 13.182529 11.22869 27.765702 14.736183 11.793655 2.813057 18.043586 9.121839 16.654712 11.22869-2.777747 3.507494-20.126897-3.507494-36.098942 2.106851-15.265839 5.614345-12.476322 19.656092-3.460414 23.151816 9.015908 3.519264 23.59908-0.706207 57.602942 4.919908 17.349149 2.801287 27.753931-2.813057 29.849012-13.33554 4.154851-23.858023-27.777471-51.22354-49.281471-56.143449z m206.812689 56.826115c2.08331 10.534253 11.805425 16.148598 29.849012 13.335541 34.015632-5.614345 48.575264-1.400644 57.602942-4.908138 9.027678-3.507494 11.793655-18.243678-3.472184-23.163587-15.265839-5.602575-32.614989 1.412414-36.087172-2.09508-2.08331-2.813057 4.849287-9.133609 16.654713-11.934897 14.571402-3.507494 30.543448-4.908138 27.765701-14.736183-4.861057-16.136828-27.071264-16.831264-43.03154-13.335541-21.51577 4.919908-53.436322 32.285425-49.281472 56.849655z m415.72046-293.311264L816.728276 293.428966c-6.238161-6.308782-15.265839-9.121839-24.293517-9.12184H239.309977c-9.015908 0-17.337379 3.507494-23.58731 9.12184L21.398069 473.088a35.298575 35.298575 0 0 0-11.805425 26.65931V939.725977c0 44.208552 35.392736 80.707678 79.813149 80.707678h852.250483c43.725977 0 79.82492-36.487356 79.824919-80.707678V499.75908c0-9.828046-4.861057-19.656092-11.805425-26.67108z m-348.395402-2.813057c-12.499862 0-22.904644 10.534253-22.904644 23.858023 0 65.971494-55.519632 121.408736-121.455816 121.408735-65.924414 0-121.444046-55.437241-121.444046-121.408735 0-12.629333-10.416552-23.858023-22.904644-23.858023H101.905655l144.34869-133.331863h539.942253l142.971586 133.331863h-267.887816z m306.752735 47.716046V939.725977c0 15.442391-11.793655 26.67108-26.365057 26.67108H89.394023c-15.265839 0-27.753931-11.934897-27.753931-26.67108V518.002759h288.709149c5.555494 36.487356 22.904644 70.856092 50.658575 96.832735 31.932322 30.873011 72.880552 47.009839 115.900322 47.009839 43.03154 0 83.97977-16.831264 115.900322-47.009839 27.071264-26.67108 45.114851-60.345379 50.670345-96.844505h284.542528z"
           p-id="7236"></path>
    <path d="M461.412046 886.324966v-2.354023 2.354023z m54.813425-57.791265a55.390161 55.390161 0 0 0-55.519632 55.437242v0.706206c0 6.308782 4.861057 11.21692 11.110989 11.21692 6.238161 0 11.099218-4.908138 11.099218-11.21692v-0.706206c0-18.243678 14.571402-33.686069 33.309425-33.686069s33.309425 15.442391 33.309426 33.686069v0.706206c0 6.308782 4.872828 11.21692 11.110988 11.21692s11.099218-4.908138 11.099218-11.21692v-0.706206c0-30.166805-24.976184-55.437241-55.519632-55.437242zM387.142621 709.573149c-15.265839-3.519264-38.170483-2.813057-43.031541 13.323771-2.777747 9.828046 13.182529 11.22869 27.765702 14.736183 11.793655 2.813057 18.043586 9.121839 16.654712 11.22869-2.777747 3.507494-20.126897-3.507494-36.098942 2.106851-15.265839 5.614345-12.476322 19.656092-3.460414 23.151816 9.015908 3.519264 23.59908-0.706207 57.602942 4.919908 17.349149 2.801287 27.753931-2.813057 29.849012-13.33554 4.154851-23.858023-27.777471-51.22354-49.281471-56.143449z m206.812689 56.826115c2.08331 10.534253 11.805425 16.148598 29.849012 13.335541 34.015632-5.614345 48.575264-1.400644 57.602942-4.908138 9.027678-3.507494 11.793655-18.243678-3.472184-23.163587-15.265839-5.602575-32.614989 1.412414-36.087172-2.09508-2.08331-2.813057 4.849287-9.133609 16.654713-11.934897 14.571402-3.507494 30.543448-4.908138 27.765701-14.736183-4.861057-16.136828-27.071264-16.831264-43.03154-13.335541-21.51577 4.919908-53.436322 32.285425-49.281472 56.849655z m415.72046-293.311264L816.728276 293.428966c-6.238161-6.308782-15.265839-9.121839-24.293517-9.12184H239.309977c-9.015908 0-17.337379 3.507494-23.58731 9.12184L21.398069 473.088a35.298575 35.298575 0 0 0-11.805425 26.65931V939.725977c0 44.208552 35.392736 80.707678 79.813149 80.707678h852.250483c43.725977 0 79.82492-36.487356 79.824919-80.707678V499.75908c0-9.828046-4.861057-19.656092-11.805425-26.67108z m-348.395402-2.813057c-12.499862 0-22.904644 10.534253-22.904644 23.858023 0 65.971494-55.519632 121.408736-121.455816 121.408735-65.924414 0-121.444046-55.437241-121.444046-121.408735 0-12.629333-10.416552-23.858023-22.904644-23.858023H101.905655l144.34869-133.331863h539.942253l142.971586 133.331863h-267.887816z m306.752735 47.716046V939.725977c0 15.442391-11.793655 26.67108-26.365057 26.67108H89.394023c-15.265839 0-27.753931-11.934897-27.753931-26.67108V518.002759h288.709149c5.555494 36.487356 22.904644 70.856092 50.658575 96.832735 31.932322 30.873011 72.880552 47.009839 115.900322 47.009839 43.03154 0 83.97977-16.831264 115.900322-47.009839 27.071264-26.67108 45.114851-60.345379 50.670345-96.844505h284.542528zM252.89269 209.331494l-88.064-84.509425a24.034575 24.034575 0 0 1-0.823908-33.709609 23.398989 23.398989 0 0 1 33.332965-0.835678l87.993379 84.509425c9.427862 9.062989 9.816276 24.128736 0.859219 33.662529-8.945287 9.545563-23.858023 9.945747-33.297655 0.882758m242.582069-37.323034a23.858023 23.858023 0 0 1-7.297472-16.654713l-3.177931-122.715218A23.752092 23.752092 0 0 1 507.974621 8.18023a23.705011 23.705011 0 0 1 24.199356 23.222437l3.10731 122.715218a23.822713 23.822713 0 0 1-13.959356 22.351448 23.351908 23.351908 0 0 1-25.776552-4.460873m228.28138 32.944551a23.987494 23.987494 0 0 1-0.870989-33.674298l83.591356-89.111541a23.398989 23.398989 0 0 1 33.332966-0.835678c9.439632 9.062989 9.804506 24.164046 0.823908 33.709609l-83.567816 89.02915c-4.307862 4.590345-10.24 7.250391-16.478161 7.415172a23.422529 23.422529 0 0 1-16.831264-6.532414"
           p-id="7237"></path>
</svg>