<svg xmlns="http://www.w3.org/2000/svg" xmlns:xlink="http://www.w3.org/1999/xlink" fill="none" version="1.1" width="119.19864654541016" height="94.3369369506836" viewBox="0 0 119.19864654541016 94.3369369506836"><g><path d="M118.04,29.8768C116.572,31.7433,113.845,31.7433,112.166,30.2912C56.3603,-18.6231,9.15491,28.2187,7.05621,30.2912C6.21774,31.1208,5.16821,31.5353,4.11916,31.5353C3.06963,31.5353,2.02058,31.1208,1.18139,30.2912C-0.287494,28.8407,-0.496632,26.1461,1.18139,24.488C1.60123,23.8661,55.939,-30.0228,117.83,24.0737C119.509,25.5241,119.718,28.2187,118.04,29.8768ZM101.256,41.8985C102.715,43.0199,103.035,44.879,102.434,46.4327C100.329,45.9268,98.1425,45.6291,95.8825,45.6291C94.91,45.6291,93.9507,45.6802,93.0047,45.7768C55.0838,15.2886,25.069,46.907,23.8408,48.3237C23.0013,49.3603,21.7423,49.7748,20.6931,49.7748C19.8548,49.7748,18.8051,49.3603,17.9667,48.7382C16.2878,47.2878,16.2878,44.5933,17.7561,42.9352C18.1748,42.5199,56.1484,2.31084,101.256,41.8985ZM58.247,49.3601C64.264,49.0897,70.1005,50.7695,75.7031,54.2588C73.7514,56.2927,72.1155,58.6215,70.8458,61.1719C66.833,58.7376,62.7891,57.5244,58.6667,57.6518Q48.1767,57.8589,40.4139,66.9774C38.9449,68.8431,36.2183,69.0505,34.5395,67.5995C32.6515,66.1484,32.4422,63.6614,33.9104,61.7959C34.3304,61.1743,43.9807,49.9814,58.247,49.3601ZM59.506,71.5375C61.7029,71.5375,63.887,72.4316,65.4399,73.9658C66.9937,75.5005,67.8986,77.6583,67.8986,79.828C67.8986,81.9991,66.9948,84.1558,65.4399,85.6906C63.887,87.2259,61.7044,88.1189,59.506,88.1189C57.309,88.1189,55.1268,87.2247,53.572,85.6906C52.0188,84.1558,51.1139,81.9985,51.1139,79.828C51.1139,77.6583,52.0188,75.5014,53.572,73.9658C55.1254,72.4304,57.309,71.5375,59.506,71.5375ZM95.8825,52.8836C107.33,52.8836,116.609,62.1629,116.609,73.61C116.609,85.0577,107.33,94.3369,95.8825,94.3369C84.4346,94.3369,75.1556,85.0577,75.1556,73.61C75.1556,62.1629,84.4346,52.8836,95.8825,52.8836ZM94.0728,85.2967C94.5205,85.7704,95.1508,86.0461,95.7842,86.0461C96.4181,86.0461,97.047,85.7704,97.496,85.2967C97.9438,84.8234,98.2046,84.1569,98.2046,83.4874C98.2046,82.8168,97.9438,82.1514,97.496,81.6783C97.0484,81.2044,96.4181,80.9286,95.7842,80.9286C95.1509,80.9286,94.5206,81.2044,94.0728,81.6783C93.6243,82.1514,93.3642,82.818,93.3642,83.4874C93.3642,84.1569,93.6243,84.8234,94.0728,85.2967ZM92.6035,65.136L93.953,77.5482L93.9655,77.5482C93.9993,78.4963,94.7581,79.2542,95.69,79.2542C96.6218,79.2542,97.3812,78.4958,97.4149,77.5482L97.4274,77.5482L98.7785,65.136C98.8276,64.9059,98.856,64.6677,98.856,64.4221C98.856,62.6284,97.4382,61.1743,95.6906,61.1743C93.9423,61.1743,92.5256,62.6284,92.5256,64.4221C92.5255,64.6677,92.5537,64.907,92.6035,65.136Z" fill="#DCDCDC" fill-opacity="1"/></g></svg>