<?xml version="1.0" encoding="utf-8"?>
<!-- Generator: Adobe Illustrator 22.0.0, SVG Export Plug-In . SVG Version: 6.00 Build 0)  -->
<svg version="1.1" id="图层_1" xmlns="http://www.w3.org/2000/svg" xmlns:xlink="http://www.w3.org/1999/xlink" x="0px" y="0px"
	 viewBox="0 0 70 70" style="enable-background:new 0 0 70 70;" xml:space="preserve">
<style type="text/css">
	.st0{fill:#A2A2A2;}
	.st1{fill:#F2F2F2;}
	.st2{fill:#FFFFFF;}
	.st3{fill:#CCCCCC;}
	.st4{fill:#ECECEC;}
	.st5{fill:#969696;}
</style>
<path class="st0" d="M25,65.3v0.4c-0.3,0-0.7,0.1-1.1,0.1v0.6h-0.5v-0.5c-0.5,0-1,0.1-1.5,0.1l-0.1-0.5c0.5,0,1.1-0.1,1.6-0.1v-0.6
	h-1.3L22,64.4c0.2-0.2,0.4-0.5,0.6-0.8h-0.8v-0.5h1c0.1-0.2,0.1-0.3,0.2-0.5l0.5,0.1c-0.1,0.1-0.1,0.3-0.2,0.4h1.7v0.5h-2
	c-0.2,0.3-0.3,0.6-0.5,0.8h0.8v-0.5h0.5v0.5H25v0.4h-1.1v0.6C24.3,65.4,24.7,65.3,25,65.3z M26,64.8c-0.1,0.6-0.3,1.1-0.6,1.6L25,66
	c0.3-0.5,0.5-1,0.5-1.7v-1.1c0.9-0.1,1.6-0.2,2.1-0.5l0.3,0.4c-0.5,0.2-1.2,0.4-1.9,0.5v0.7h2.1v0.5h-0.8v1.6h-0.5v-1.6H26z
	 M27.4,66.6v2.7h-0.5V69h-3.6v0.3h-0.5v-2.7C22.7,66.6,27.4,66.6,27.4,66.6z M23.2,68.6h3.6V68h-3.6V68.6z M23.2,67.6h3.6V67h-3.6
	V67.6z M29.5,63.1h5.1v0.5h-2.6v0.5c0,0.4,0,0.9-0.1,1.3h3.2v0.5H33v2.5c0,0.2,0.1,0.4,0.3,0.4h0.9c0.2,0,0.3-0.1,0.4-0.1
	c0.1-0.1,0.2-0.4,0.2-1l0.5,0.2c-0.1,0.7-0.2,1.1-0.3,1.3c-0.1,0.1-0.4,0.2-0.7,0.2h-1.2c-0.5,0-0.7-0.2-0.7-0.7v-2.6h-0.6
	c-0.1,0.6-0.3,1.2-0.5,1.6c-0.4,0.8-1.2,1.4-2.2,1.8l-0.3-0.5c1-0.4,1.7-1,2.1-1.8c0.2-0.4,0.3-0.8,0.4-1.2H29v-0.5h2.4
	c0.1-0.4,0.1-0.8,0.1-1.3v-0.5h-2.1L29.5,63.1L29.5,63.1z M39.5,65.1v0.8H39v-1.3h0c-0.4,0.6-1.2,1.2-2.4,1.7l-0.3-0.4
	c1.1-0.4,1.9-0.8,2.3-1.2h-2.3v-0.5H39v-1.4h0.5v1.4h2.8v0.5h-2.8v0.1c1,0.3,1.8,0.6,2.6,1l-0.3,0.4C41.1,65.8,40.4,65.4,39.5,65.1
	L39.5,65.1z M39.2,67.5c-0.1,0.3-0.3,0.5-0.5,0.7c-0.5,0.5-1.2,0.8-2.3,1.1l-0.2-0.5c1-0.2,1.7-0.5,2.1-0.9c0.2-0.2,0.3-0.4,0.4-0.6
	h-2.5v-0.5h2.7c0.1-0.2,0.1-0.4,0.2-0.7h0.5c0,0.2-0.1,0.5-0.1,0.7h2.9v0.5h-2.7c0.7,0.7,1.6,1.2,2.8,1.5l-0.3,0.5
	C40.9,68.9,39.8,68.3,39.2,67.5L39.2,67.5z M37.5,62.8c0.2,0.3,0.4,0.6,0.6,1l-0.4,0.1c-0.1-0.3-0.3-0.7-0.6-1L37.5,62.8L37.5,62.8z
	 M41,62.8l0.5,0.1c-0.1,0.4-0.3,0.7-0.6,1l-0.4-0.2C40.6,63.5,40.8,63.2,41,62.8L41,62.8z M43.5,63h3.4v0.5h-0.7v1.1H47v0.5h-0.9
	v1.6h-0.5v-1.6h-0.9c-0.1,0.7-0.4,1.3-0.8,1.7l-0.4-0.3c0.4-0.3,0.6-0.7,0.7-1.3h-0.9v-0.5h0.9v-1.1h-0.7L43.5,63L43.5,63z
	 M44.7,63.5v1.1h0.9v-1.1H44.7z M47.4,63.2h0.5v2.5h-0.5V63.2z M43.7,67.3h2.5v-0.6h0.5v0.6h2.5v0.5h-2.5v0.8h2.9v0.5h-6.3v-0.5h2.9
	v-0.8h-2.5V67.3z M48.7,66.7h-1l-0.1-0.5c0.3,0,0.6,0,0.9,0c0.2,0,0.3-0.1,0.3-0.3v-3.1h0.5V66C49.2,66.5,49,66.7,48.7,66.7z"/>
<path class="st1" d="M51.6,40.4h12.6c1.5,0,2.7-1.3,2.7-2.9s-1.2-2.9-2.7-2.9H53.2c-1.5,0-2.7-1.3-2.7-2.9c0-1.6,1.2-2.9,2.7-2.9
	h8.4c1.5,0,2.7-1.3,2.7-2.9c0-1.6-1.2-2.9-2.7-2.9H49c-1.5,0-2.7-1.3-2.7-2.9c0-1.6,1.2-2.9,2.7-2.9h9.9c1.5,0,2.7-1.3,2.7-2.9
	c0-1.6-1.2-2.9-2.7-2.9H20.3c-1.5,0-2.7,1.3-2.7,2.9s1.2,2.9,2.7,2.9h3.9c1.5,0,2.7,1.3,2.7,2.9c0,1.6-1.2,2.9-2.7,2.9h-8.6
	c-1.5,0-2.7,1.3-2.7,2.9c0,1.6,1.2,2.9,2.7,2.9h6.7c1.5,0,2.7,1.3,2.7,2.9c0,1.6-1.2,2.9-2.7,2.9H2.7c-1.5,0-2.7,1.3-2.7,2.9
	c0,1.6,1.2,2.9,2.7,2.9h24c1.5,0,2.7,1.3,2.7,2.9c0,1.6-1.2,2.9-2.7,2.9h-6.4c-1.5,0-2.7,1.3-2.7,2.9c0,1.6,1.2,2.9,2.7,2.9h43.6
	c1.5,0,2.7-1.3,2.7-2.9c0-1.6-1.2-2.9-2.7-2.9H51.6c-1.5,0-2.7-1.3-2.7-2.9C49,41.7,50.2,40.4,51.6,40.4L51.6,40.4z"/>
<path class="st2" d="M32.1,22.7c-2.7,0-4.5,1.5-4.5,3.8c0,2,1.9,3.6,4.2,3.6h4.5v-3.8C36.2,24.3,34.3,22.7,32.1,22.7z"/>
<path class="st3" d="M32.1,22.4c-3,0-4.9,1.7-4.9,4.3c0,2.2,2.1,4,4.6,4h4.9v-4.3C36.7,24.2,34.7,22.4,32.1,22.4z M36.3,30.4h-4.5
	c-2.3,0-4.2-1.6-4.2-3.6c0-2.4,1.8-3.9,4.5-3.9c2.3,0,4.2,1.6,4.2,3.6C36.3,26.5,36.3,30.4,36.3,30.4z M47.5,26.7
	c0-2.6-2-4.3-4.9-4.3c-2.6,0-4.6,1.8-4.6,4v4.3h4.9C45.4,30.8,47.5,29,47.5,26.7L47.5,26.7z"/>
<path class="st2" d="M47,35.3c0-2-1.9-3.5-4.2-3.5h0l-4.5,0l0,3.8c0,1,0.4,1.8,1.2,2.5c0.8,0.7,1.8,1,2.9,1
	C45.2,39.2,47,37.7,47,35.3L47,35.3z"/>
<path class="st3" d="M42.9,31.3L42.9,31.3l-5,0l0,4.3c0,1.1,0.5,2.1,1.4,2.8c0.9,0.7,2,1.2,3.3,1.2h0c1.5,0,2.7-0.4,3.6-1.2
	c0.9-0.8,1.3-1.9,1.3-3.1C47.5,33.1,45.4,31.3,42.9,31.3z M39.6,38.2c-0.8-0.7-1.2-1.6-1.2-2.5l0-3.9l4.5,0h0c2.3,0,4.2,1.6,4.2,3.6
	c0,2.4-1.7,3.9-4.4,3.9C41.5,39.2,40.4,38.8,39.6,38.2z M28.5,32.4c-0.9,0.7-1.4,1.7-1.5,2.8c-0.1,1.3,0.4,2.4,1.2,3.2
	c0.9,0.8,2.1,1.2,3.5,1.3c0.1,0,0.1,0,0.2,0c2.5,0,4.5-1.7,4.6-3.9l0.2-4.3l-4.9-0.2C30.6,31.2,29.4,31.6,28.5,32.4L28.5,32.4z"/>
<path class="st2" d="M10.6,5.5c0,0.9,0.7,1.7,1.7,1.7c0.9,0,1.7-0.8,1.7-1.7c0-0.9-0.7-1.7-1.7-1.7S10.6,4.6,10.6,5.5z M66.7,44.8
	c0,0.9,0.7,1.7,1.7,1.7s1.7-0.7,1.7-1.7c0,0,0,0,0,0c0-0.9-0.7-1.7-1.7-1.7C67.4,43.2,66.7,43.9,66.7,44.8z"/>
<path class="st4" d="M21.2,56.5c0.2,0,0.4,0.2,0.4,0.3s-0.2,0.3-0.4,0.3h-8.7c-0.2,0-0.4-0.2-0.4-0.3c0-0.2,0.2-0.3,0.4-0.3H21.2z
	 M60.8,56.5c0.2,0,0.4,0.2,0.4,0.3s-0.2,0.3-0.4,0.3H28.1c-0.2,0-0.4-0.2-0.4-0.3c0-0.2,0.2-0.3,0.4-0.3H60.8L60.8,56.5z M35.1,54.3
	c0.2,0,0.4,0.2,0.4,0.3c0,0.2-0.2,0.3-0.4,0.3H20.3c-0.2,0-0.4-0.2-0.4-0.3c0-0.2,0.2-0.3,0.4-0.3H35.1z M39.6,54.3
	c0.2,0,0.4,0.2,0.4,0.3c0,0.2-0.2,0.3-0.4,0.3h-1.3c-0.2,0-0.4-0.2-0.4-0.3c0-0.2,0.2-0.3,0.4-0.3H39.6z M52.2,54.3
	c0.2,0,0.4,0.2,0.4,0.3c0,0.2-0.2,0.3-0.4,0.3h-9.1c-0.2,0-0.4-0.2-0.4-0.3c0-0.2,0.2-0.3,0.4-0.3H52.2L52.2,54.3z M55.9,52.5
	c0.2,0,0.4,0.2,0.4,0.3c0,0.2-0.2,0.3-0.4,0.3H14c-0.2,0-0.4-0.2-0.4-0.3c0-0.2,0.2-0.3,0.4-0.3H55.9z M61.3,52.5
	c0.2,0,0.4,0.2,0.4,0.3c0,0.2-0.2,0.3-0.4,0.3h-2.6c-0.2,0-0.4-0.2-0.4-0.3c0-0.2,0.2-0.3,0.4-0.3H61.3L61.3,52.5z"/>
<path class="st5" d="M56.2,28.6c0.9,0,1.6,0.7,1.6,1.6c0,0,0,0,0,0c0,0.9-0.7,1.6-1.6,1.6c0,0,0,0,0,0c-0.9,0-1.6-0.7-1.6-1.6
	c0,0,0,0,0,0C54.6,29.4,55.3,28.6,56.2,28.6C56.2,28.6,56.2,28.6,56.2,28.6z M56.2,29c-0.7,0-1.3,0.6-1.3,1.3c0,0,0,0,0,0
	c0,0.7,0.6,1.3,1.3,1.3c0,0,0,0,0,0c0.7,0,1.3-0.6,1.3-1.3c0,0,0,0,0,0C57.5,29.6,56.9,29,56.2,29C56.2,29,56.2,29,56.2,29z
	 M16.7,28.5v0.9h0.9v0.4h-0.9v0.9h-0.4v-0.9h-0.9v-0.4h0.9v-0.9C16.4,28.5,16.7,28.5,16.7,28.5z M18.5,18.1c0.9,0,1.6,0.7,1.6,1.6
	c0,0.9-0.7,1.6-1.6,1.6c0,0,0,0,0,0c-0.9,0-1.6-0.7-1.6-1.6c0,0,0,0,0,0C16.9,18.8,17.6,18.1,18.5,18.1
	C18.5,18.1,18.5,18.1,18.5,18.1z M18.5,18.4c-0.7,0-1.3,0.6-1.3,1.3c0,0,0,0,0,0c0,0.7,0.6,1.3,1.3,1.3c0,0,0,0,0,0
	c0.7,0,1.3-0.6,1.3-1.3c0,0,0,0,0,0C19.8,19,19.3,18.4,18.5,18.4C18.5,18.4,18.5,18.4,18.5,18.4L18.5,18.4z M51.3,15.7v0.9h0.9V17
	h-0.9v0.9h-0.4V17H50v-0.4h0.9v-0.9L51.3,15.7L51.3,15.7z M36.2,11.9c0.9,0,1.6,0.7,1.6,1.6c0,0,0,0,0,0c0,0.9-0.7,1.6-1.6,1.6
	c0,0,0,0,0,0c-0.9,0-1.6-0.7-1.6-1.6c0,0,0,0,0,0C34.5,12.6,35.3,11.9,36.2,11.9C36.2,11.9,36.2,11.9,36.2,11.9L36.2,11.9z
	 M36.2,12.2c-0.7,0-1.3,0.6-1.3,1.3c0,0,0,0,0,0c0,0.7,0.6,1.3,1.3,1.3c0,0,0,0,0,0c0.7,0,1.3-0.6,1.3-1.3c0,0,0,0,0,0
	C37.5,12.8,36.9,12.2,36.2,12.2C36.2,12.2,36.2,12.2,36.2,12.2z M53.5,4v0.9h0.9v0.4h-0.9v0.9h-0.4V5.3h-0.9V4.9h0.9V4
	C53.1,4,53.5,4,53.5,4z M31.8,1.5v0.9h0.9v0.4h-0.9v0.9h-0.4V2.7h-0.9V2.4h0.9V1.5C31.5,1.5,31.8,1.5,31.8,1.5z M43.1,0
	c0.9,0,1.6,0.7,1.6,1.6c0,0,0,0,0,0c0,0.9-0.7,1.6-1.6,1.6c0,0,0,0,0,0c-0.9,0-1.6-0.7-1.6-1.6c0,0,0,0,0,0C41.5,0.7,42.2,0,43.1,0
	C43.1,0,43.1,0,43.1,0z M43.1,0.4c-0.7,0-1.3,0.6-1.3,1.3c0,0,0,0,0,0c0,0.7,0.6,1.3,1.3,1.3c0,0,0,0,0,0c0.7,0,1.3-0.6,1.3-1.3
	c0,0,0,0,0,0C44.4,0.9,43.8,0.4,43.1,0.4C43.1,0.4,43.1,0.4,43.1,0.4z"/>
</svg>
