<?xml version="1.0" standalone="no"?><!DOCTYPE svg PUBLIC "-//W3C//DTD SVG 1.1//EN" "http://www.w3.org/Graphics/SVG/1.1/DTD/svg11.dtd"><svg t="1703733938874" class="icon" viewBox="0 0 1024 1024" version="1.1" xmlns="http://www.w3.org/2000/svg" p-id="12190" xmlns:xlink="http://www.w3.org/1999/xlink" width="48" height="48"><path d="M910.762667 369.664l-135.765334 135.765333a85.333333 85.333333 0 0 1-120.661333 0l-135.765333-135.765333a85.333333 85.333333 0 0 1 0-120.661333l135.765333-135.765334a85.333333 85.333333 0 0 1 120.661333 0l135.765334 135.765334a85.333333 85.333333 0 0 1 0 120.661333zM362.666667 938.666667H170.666667a85.333333 85.333333 0 0 1-85.333334-85.333334v-192a85.333333 85.333333 0 0 1 85.333334-85.333333h192a85.333333 85.333333 0 0 1 85.333333 85.333333v192a85.333333 85.333333 0 0 1-85.333333 85.333334z m0-448H170.666667a85.333333 85.333333 0 0 1-85.333334-85.333334v-192a85.333333 85.333333 0 0 1 85.333334-85.333333h192a85.333333 85.333333 0 0 1 85.333333 85.333333v192a85.333333 85.333333 0 0 1-85.333333 85.333334z m256 85.333333h192a85.333333 85.333333 0 0 1 85.333333 85.333333v192a85.333333 85.333333 0 0 1-85.333333 85.333334h-192a85.333333 85.333333 0 0 1-85.333334-85.333334v-192a85.333333 85.333333 0 0 1 85.333334-85.333333z" p-id="12191"></path></svg>