<svg xmlns="http://www.w3.org/2000/svg" xmlns:xlink="http://www.w3.org/1999/xlink" fill="none" version="1.1" width="24" height="24" viewBox="0 0 24 24"><defs><clipPath id="master_svg0_12077_19569"><rect x="0" y="0" width="24" height="24" rx="0"/></clipPath></defs><g clip-path="url(#master_svg0_12077_19569)"><g><path d="M6.035,7.55625L11.0875,4.437748C11.673,4.076498,12.444,4.25224762,12.81,4.830248C12.9342,5.026498,13,5.2532499999999995,13,5.4845L13,18.5155C13,19.197499999999998,12.4402,19.75,11.75,19.75C11.51575,19.75,11.28625,19.685000000000002,11.0875,19.5625L6.035,16.4437L3.75,16.4437C2.7835,16.4437,2,15.67,2,14.7155L2,9.284500000000001C2,8.33,2.7835,7.55625,3.75,7.55625L6.035,7.55625ZM6.6475,8.925C6.52799,8.99863,6.39037,9.03758,6.25,9.0375L3.75,9.0375C3.612,9.0375,3.5,9.148,3.5,9.284500000000001L3.5,14.7157C3.5,14.852,3.612,14.9627,3.75,14.9627L6.25,14.9627C6.3905,14.9627,6.52825,15.0017,6.6475,15.0752L11.5,18.07L11.5,5.93L6.6475,8.925ZM18.7712,19.445C18.472,19.7292,18.0003,19.7213,17.7107,19.4272C17.4226,19.1345,17.4307,18.662399999999998,17.7288,18.3797C21.4237,14.8532,21.4237,9.14625,17.7288,5.61975C17.4309,5.33714,17.422800000000002,4.865172,17.7107,4.572497C18.0003,4.2783974,18.472,4.2705014,18.7712,4.554747C23.0763,8.663499999999999,23.0763,15.3362,18.7712,19.445ZM16.265700000000002,16.4875C15.9636,16.768900000000002,15.4918,16.7562,15.2052,16.459C14.9205,16.1633,14.9336,15.6915,15.2342,15.412C17.255200000000002,13.52275,17.255200000000002,10.477,15.2342,8.5875C14.9336,8.307970000000001,14.9205,7.83624,15.2052,7.5405C15.4918,7.243320000000001,15.9636,7.23064,16.265700000000002,7.5120000000000005C18.9115,9.98575,18.9115,14.014,16.265700000000002,16.4877L16.265700000000002,16.4875Z" fill="#FFFFFF" fill-opacity="1"/></g><g transform="matrix(-0.6944081783294678,-0.7195813059806824,-0.7195813059806824,0.6944081783294678,37.86426033510361,16.080195053751595)"><rect x="20.607391357421875" y="4.0953369140625" width="1.5221939086914062" height="23" rx="0" fill="#FFFFFF" fill-opacity="1"/></g></g></svg>