<svg xmlns="http://www.w3.org/2000/svg" xmlns:xlink="http://www.w3.org/1999/xlink" fill="none" version="1.1" width="20" height="15.499996185302734" viewBox="0 0 20 15.499996185302734"><g><path d="M4.035,3.30625L9.0875,0.187748C9.673,-0.173502,10.444,0.00224762,10.81,0.580248C10.9342,0.776498,11,1.00325,11,1.2345L11,14.2655C11,14.9475,10.4402,15.5,9.75,15.5C9.51575,15.5,9.28625,15.435,9.0875,15.3125L4.035,12.1937L1.75,12.1937C0.7835,12.1937,0,11.42,0,10.4655L0,5.0345C0,4.08,0.7835,3.30625,1.75,3.30625L4.035,3.30625ZM4.6475,4.675C4.52799,4.74863,4.39037,4.78758,4.25,4.7875L1.75,4.7875C1.612,4.7875,1.5,4.898,1.5,5.0345L1.5,10.4657C1.5,10.602,1.612,10.7127,1.75,10.7127L4.25,10.7127C4.3905,10.7127,4.52825,10.7517,4.6475,10.8252L9.5,13.82L9.5,1.68L4.6475,4.675ZM16.7712,15.195C16.472,15.4792,16.0003,15.4713,15.7107,15.1772C15.4226,14.8845,15.4307,14.4124,15.7288,14.1297C19.4237,10.6032,19.4237,4.89625,15.7288,1.36975C15.4309,1.08714,15.4228,0.615172,15.7107,0.322497C16.0003,0.0283974,16.472,0.0205014,16.7712,0.304747C21.0763,4.4135,21.0763,11.0862,16.7712,15.195ZM14.2657,12.2375C13.9636,12.5189,13.4918,12.5062,13.2052,12.209C12.9205,11.9133,12.9336,11.4415,13.2342,11.162C15.2552,9.27275,15.2552,6.227,13.2342,4.3375C12.9336,4.05797,12.9205,3.58624,13.2052,3.2905C13.4918,2.99332,13.9636,2.98064,14.2657,3.262C16.9115,5.73575,16.9115,9.764,14.2657,12.2377L14.2657,12.2375Z" fill="#FFFFFF" fill-opacity="1"/></g></svg>