<svg xmlns="http://www.w3.org/2000/svg" xmlns:xlink="http://www.w3.org/1999/xlink" fill="none" version="1.1" width="36" height="35.54916763305664" viewBox="0 0 36 35.54916763305664"><g><path d="M5.85131,3.8107L30.1439,3.8107C33.3709,3.8107,36,6.43976,36,9.66675L36,29.6931C36,32.9201,33.3757,35.5492,30.1439,35.5492L5.85605,35.5492C2.62905,35.5492,0,32.9249,0,29.6931L0,9.66201C0,9.43422,0.0142368,9.20643,0.0379647,8.98339L0.0379647,5.61877C0.0379647,2.5199,2.55787,0,5.65674,0L30.3053,0C30.8273,0,31.2544,0.427103,31.2544,0.949117C31.2544,1.47113,30.8273,1.89823,30.3053,1.89823L5.65199,1.89823C3.7063,1.89823,2.10704,3.40258,1.94569,5.30556C2.98497,4.37543,4.3517,3.8107,5.85131,3.8107ZM30.1439,33.1859C32.0659,33.1859,33.6272,31.6246,33.6272,29.7026L33.6225,29.7026L33.6225,9.66675C33.6225,7.74479,32.0612,6.1835,30.1392,6.1835L5.85131,6.1835C3.92934,6.1835,2.36805,7.74479,2.36805,9.66675L2.36805,29.7026C2.36805,31.6246,3.92934,33.1859,5.85131,33.1859L30.1439,33.1859ZM24.5062,15.2049C24.5062,16.5526,24.1028,17.8007,23.4052,18.8447L26.7129,26.8363C26.8173,27.0925,26.7651,27.3868,26.58,27.5908C26.3902,27.7949,26.1055,27.8708,25.8397,27.7854L23.1584,26.9312L21.787,29.4701C21.6636,29.7026,21.4216,29.845,21.1606,29.845L21.1273,29.845C20.8521,29.8307,20.6101,29.6599,20.5057,29.4084L17.9715,23.3245L15.4374,29.4084C15.333,29.6599,15.091,29.8307,14.8157,29.845L14.7825,29.845C14.5215,29.845,14.2795,29.7026,14.1561,29.4701L12.7846,26.9312L10.1033,27.7854C9.83759,27.8708,9.54811,27.7949,9.36303,27.5908C9.17795,27.3868,9.12575,27.0925,9.23015,26.8363L12.5094,18.9254C11.7785,17.8671,11.3514,16.5858,11.3514,15.2049C11.3514,11.5792,14.3032,8.62747,17.9288,8.62747C21.5544,8.62747,24.5062,11.5792,24.5062,15.2049ZM22.608,15.2049C22.608,12.6233,20.5104,10.5257,17.9288,10.5257C15.3472,10.5257,13.2497,12.6233,13.2497,15.2049C13.2497,17.7864,15.3472,19.884,17.9288,19.884C20.5104,19.884,22.608,17.7864,22.608,15.2049ZM22.1903,25.74C22.3564,25.4363,22.7076,25.294,23.0351,25.3984L24.8147,25.9631L22.3659,20.0548C21.4073,20.928,20.1925,21.526,18.8447,21.7158L21.2507,27.4864L22.1903,25.74ZM13.7574,25.7353L14.6971,27.4817L17.0983,21.7253C15.7506,21.5544,14.5262,20.9755,13.5581,20.1118L11.1331,25.9631L12.9127,25.3936C13.2402,25.2892,13.5961,25.4363,13.7574,25.7353Z" fill-rule="evenodd" fill="#FFFFFF" fill-opacity="1"/></g></svg>