<svg xmlns="http://www.w3.org/2000/svg" xmlns:xlink="http://www.w3.org/1999/xlink" fill="none" version="1.1" width="35.995723724365234" height="36" viewBox="0 0 35.995723724365234 36"><g><path d="M27.1345,36L27.1292,36C25.8951,35.9968,24.7124,35.5054,23.8394,34.6331L19.6338,30.4274C18.7576,29.556,18.2665,28.3702,18.27,27.1345C18.2663,25.8987,18.7574,24.7128,19.6338,23.8415L23.8415,19.6348C24.714,18.7632,25.8959,18.2722,27.1292,18.2689L27.1451,18.2689C28.3766,18.2739,29.5564,18.7652,30.4274,19.6359L34.6331,23.8415C36.4499,25.6605,36.4499,28.6074,34.6331,30.4263L30.4253,34.6331C29.5547,35.5096,28.3699,36.0017,27.1345,36ZM27.1345,20.5211C26.499,20.523,25.89,20.7761,25.4404,21.2252L21.2305,25.434C20.7782,25.8841,20.5246,26.4964,20.5264,27.1345C20.5243,27.7729,20.7779,28.3857,21.2305,28.836L25.4382,33.0427C25.8875,33.4926,26.4966,33.7464,27.1324,33.7489L27.1376,33.7489C27.7763,33.75,28.389,33.4958,28.8392,33.0427L33.0469,28.836C33.9852,27.8961,33.9852,26.3739,33.0469,25.434L28.8392,21.2273C28.3899,20.7773,27.7809,20.5234,27.1451,20.5211L27.1345,20.5211ZM12.042,35.4843L4.65882,35.4843C2.08583,35.4843,9.08795e-8,33.3985,0,30.8255L0,23.4402C-1.81759e-7,20.8672,2.08583,18.7814,4.65882,18.7814L12.042,18.7814C14.615,18.7814,16.7008,20.8672,16.7008,23.4402L16.7008,30.8255C16.6944,33.3959,14.6123,35.478,12.042,35.4843ZM4.65882,21.0335C3.32978,21.0353,2.25281,22.1122,2.25106,23.4413L2.25106,30.8266C2.25281,32.1555,3.32995,33.2321,4.65882,33.2333L12.042,33.2333C13.3707,33.2298,14.4469,32.1532,14.4498,30.8245L14.4498,23.4413C14.4486,22.112,13.3713,21.0347,12.042,21.0335L4.65882,21.0335ZM30.8319,16.6987L23.4487,16.6987C20.8757,16.6987,18.7899,14.6129,18.7899,12.0399L18.7899,4.65882C18.7899,2.08583,20.8757,9.08795e-8,23.4487,0L30.8319,0C33.4049,3.63518e-7,35.4907,2.08583,35.4907,4.65882L35.4907,12.0441C35.4826,14.6129,33.4006,16.6924,30.8319,16.6976L30.8319,16.6987ZM23.4487,2.25106C22.1198,2.25222,21.0427,3.32889,21.0409,4.65776L21.0409,12.0388C21.0427,13.3679,22.1197,14.4448,23.4487,14.4466L30.8319,14.4466C32.1596,14.4437,33.2356,13.3687,33.2396,12.0409L33.2396,4.65776C33.2379,3.32889,32.1608,2.25223,30.8319,2.25106L23.4487,2.25106ZM12.042,16.6987L4.65882,16.6987C2.08583,16.6987,9.08795e-8,14.6129,0,12.0399L0,4.65882C7.27036e-7,2.08583,2.08583,9.08795e-8,4.65882,0L12.042,0C14.615,3.63518e-7,16.7008,2.08583,16.7008,4.65882L16.7008,12.0441C16.6927,14.6129,14.6108,16.6924,12.042,16.6976L12.042,16.6987ZM4.65882,2.25106C3.32995,2.25222,2.25281,3.32889,2.25106,4.65776L2.25106,12.0388C2.25281,13.3679,3.32978,14.4448,4.65882,14.4466L12.042,14.4466C13.3696,14.4443,14.4457,13.3696,14.4498,12.042L14.4498,4.65776C14.448,3.32889,13.3709,2.25222,12.042,2.25106L4.65882,2.25106Z" fill="#FFFFFF" fill-opacity="1"/></g></svg>