<svg xmlns="http://www.w3.org/2000/svg" xmlns:xlink="http://www.w3.org/1999/xlink" fill="none" version="1.1" width="36" height="33.18735122680664" viewBox="0 0 36 33.18735122680664"><g><path d="M26.5211,0C28.0087,-0.0000130463,29.3827,0.79546,30.1234,2.08551L35.2611,11.0335L35.2591,11.0335C35.7303,11.8481,36,12.794,36,13.8028C36,16.8616,33.5203,19.3413,30.4615,19.3413L5.53848,19.3413C2.47967,19.3412,0,16.8615,0,13.8027C0,13.4524,0.0325316,13.1096,0.0947388,12.7773C0.104178,12.7269,0.1143,12.6767,0.125095,12.6268C0.261666,11.9951,0.505984,11.4036,0.837851,10.8724L5.99234,2.05716C6.73727,0.783105,8.10232,0,9.57821,0L26.5211,0ZM2.76919,13.8027C2.76919,13.882,2.77253,13.9605,2.77906,14.0381C2.86611,15.0719,3.52104,15.9441,4.43079,16.3416C4.75681,16.484,5.11556,16.5655,5.49262,16.5716L5.53843,16.572L30.4615,16.572C31.9909,16.572,33.2308,15.3321,33.2307,13.8027C33.2307,13.7677,33.2301,13.7329,33.2288,13.6981C33.1744,12.2323,31.9807,11.0577,30.5073,11.0339L30.4615,11.0335L5.53848,11.0335C4.00907,11.0335,2.76924,12.2733,2.76919,13.8027ZM30.4778,8.26428L30.4615,8.26425L5.57075,8.26425L8.38294,3.45494L8.39398,3.4363C8.64493,3.02217,9.09398,2.76922,9.57821,2.76924L26.5211,2.76924L26.5426,2.76938C27.0307,2.77697,27.4788,3.04105,27.7218,3.46442L30.4778,8.26428ZM9.69228,12.4182C10.457,12.4182,11.0769,13.038,11.0769,13.8027C11.0769,14.5674,10.457,15.1873,9.69228,15.1873L6.92309,15.1873C6.15839,15.1873,5.53847,14.5674,5.53847,13.8027C5.53847,13.038,6.15839,12.4181,6.92309,12.4181L9.69228,12.4182ZM36,27.6489C36,24.59,33.5203,22.1104,30.4615,22.1104L5.53848,22.1104C2.47967,22.1104,0,24.5901,0,27.6489C0,30.7077,2.47967,33.1874,5.53848,33.1874L30.4615,33.1874C33.5203,33.1874,36,30.7077,36,27.6489ZM5.53848,24.8796L30.4615,24.8796L30.5073,24.88C32.0156,24.9045,33.2308,26.1348,33.2308,27.6489C33.2308,29.1783,31.9909,30.4181,30.4615,30.4181L5.53848,30.4181L5.49267,30.4177C3.9844,30.3933,2.76924,29.163,2.76924,27.6489C2.76924,26.1195,4.00907,24.8796,5.53848,24.8796ZM9.69228,26.2643C10.457,26.2643,11.0769,26.8842,11.0769,27.6489C11.0769,28.4136,10.457,29.0335,9.69228,29.0335L6.92309,29.0335C6.15839,29.0335,5.53847,28.4136,5.53847,27.6489C5.53847,26.8842,6.15839,26.2643,6.92309,26.2643L9.69228,26.2643Z" fill-rule="evenodd" fill="#FFFFFF" fill-opacity="1"/></g></svg>