<svg xmlns="http://www.w3.org/2000/svg" xmlns:xlink="http://www.w3.org/1999/xlink" fill="none" version="1.1" width="32" height="30.523704528808594" viewBox="0 0 32 30.523704528808594"><g><path d="M19.7806,9.12722Q21.3465,7.56134,21.3466,5.34679Q21.3508,3.13028,19.7835,1.56307Q18.2163,-0.00419919,15.9998,0.0000112842Q13.7854,0.0000112027,12.2194,1.56599Q10.6534,3.13196,10.6534,5.34661Q10.6534,7.56123,12.2194,9.12722Q13.7854,10.6932,16,10.6932Q18.2146,10.6932,19.7806,9.12722ZM18.319,3.02764Q19.2795,3.98818,19.2795,5.34661Q19.2795,6.70503,18.319,7.66557Q17.3584,8.62611,16,8.62611Q14.6416,8.62611,13.681,7.66557Q12.7205,6.70503,12.7205,5.3466Q12.7205,3.98818,13.681,3.02764Q14.6416,2.06709,16,2.0671Q17.3584,2.0671,18.319,3.02764ZM8.50686,6.73311Q9.21698,6.79305,9.43204,7.50468Q9.66083,8.26179,9.01451,8.71506Q6.10404,11.1474,5.2747,14.8488Q5.18229,15.267,4.83784,15.5214Q4.49504,15.7747,4.07062,15.7417L3.90407,15.7417L3.89289,15.739Q3.44266,15.6336,3.20484,15.2373Q2.94739,14.8305,3.07373,14.3662Q4.07183,9.89972,7.59688,6.98095Q7.94476,6.66339,8.41487,6.69844L8.50686,6.7053L8.50686,6.73311ZM23.662,6.95706Q23.1907,7.00026,22.8814,7.3587L22.8789,7.36163L22.8766,7.36475Q22.6017,7.73847,22.6651,8.19805Q22.7284,8.65686,23.0931,8.94202Q26.0145,11.3689,26.835,15.0783Q26.9295,15.4876,27.2652,15.7402Q27.5963,15.9892,28.0088,15.9707Q28.1007,15.9859,28.1926,15.9685L28.1946,15.9681L28.1967,15.9676Q28.6469,15.8622,28.8848,15.4659Q29.1422,15.0591,29.0159,14.5947Q28.0196,10.1258,24.4917,7.20863Q24.1311,6.9036,23.662,6.95706ZM9.13317,26.2542Q10.6974,24.685,10.6932,22.4694Q10.689,20.2578,9.12362,18.6953Q7.55827,17.1329,5.34658,17.1329Q3.13095,17.1329,1.56478,18.7001Q-0.00139945,20.2673,0,22.4829Q0.00140305,24.6985,1.56957,26.2637Q3.13771,27.8289,5.35335,27.8261Q7.56896,27.8233,9.13317,26.2542ZM30.44,26.2542Q32.0042,24.685,32,22.4694Q31.9957,20.2577,30.4304,18.6953Q28.8651,17.1329,26.6534,17.1329Q24.4378,17.1329,22.8716,18.7001Q21.3054,20.2673,21.3068,22.4829Q21.3082,24.6985,22.8764,26.2637Q24.4446,27.8289,26.6602,27.8261Q28.8758,27.8234,30.44,26.2542ZM7.66555,20.1506Q8.62609,21.1112,8.62609,22.4696Q8.6261,23.828,7.66555,24.7886Q6.705,25.7491,5.34658,25.7491Q3.98816,25.7491,3.02762,24.7886Q2.06707,23.828,2.06707,22.4696Q2.06707,21.1112,3.02762,20.1506Q3.98816,19.1901,5.34658,19.1901Q6.705,19.1901,7.66555,20.1506ZM28.9724,20.1506Q29.9329,21.1112,29.9329,22.4696Q29.9329,23.828,28.9724,24.7886Q28.0118,25.7491,26.6534,25.7491Q25.295,25.7491,24.3344,24.7886Q23.3739,23.828,23.3739,22.4696Q23.3739,21.1112,24.3344,20.1506Q25.295,19.1901,26.6534,19.1901Q28.0118,19.1901,28.9724,20.1506ZM21.9439,28.7619Q22.1244,28.3672,22.0089,27.9488L22.008,27.9454L22.0068,27.9422Q21.8312,27.4442,21.3433,27.2425Q20.8553,27.0408,20.3794,27.2695L20.3764,27.2709L20.3736,27.2725Q18.6717,28.2335,16.1492,28.2001Q13.6305,28.1666,11.5211,27.1601L11.5163,27.1578L11.5113,27.156Q11.1019,27.0117,10.6861,27.1365Q10.2702,27.2612,10.0078,27.6071L10.0066,27.6087L10.0054,27.6104Q9.9146,27.741,9.85559,27.8886L9.85374,27.8933L9.85236,27.8981Q9.73719,28.2986,9.91795,28.6742L9.91958,28.6776L9.92145,28.6808Q10.1773,29.1236,10.6411,29.3373Q13.1737,30.5237,15.9702,30.5237Q18.7655,30.5237,21.2969,29.3384Q21.719,29.1672,21.9404,28.7688L21.9422,28.7654L21.9439,28.7619Z" fill-rule="evenodd" fill="#FFFFFF" fill-opacity="1"/></g></svg>