<svg xmlns="http://www.w3.org/2000/svg" xmlns:xlink="http://www.w3.org/1999/xlink" fill="none" version="1.1" width="36" height="35.08865737915039" viewBox="0 0 36 35.08865737915039"><g><path d="M17.9793,21.9054Q15.1595,22.0916,12.8984,23.781Q11.3817,24.9587,9.47454,25.1827L9.46113,25.1843L9.44762,25.1844Q7.05282,25.2022,5.34693,23.5141Q5.03536,23.1928,5.03366,22.7442L5.03366,16.676L2.95081,16.676Q2.17457,16.6668,1.9043,15.9432Q1.62688,15.2346,2.18686,14.7207L17.2345,0.293546L17.2397,0.289112Q17.5766,0,18.0206,0Q18.4646,0,18.8016,0.289111L18.8047,0.291763L23.4685,4.56861L23.4685,3.73335Q23.4685,3.2641,23.8003,2.9323Q24.1321,2.6005,24.6013,2.6005L28.7447,2.6005Q29.214,2.6005,29.5458,2.9323Q29.8776,3.26411,29.8776,3.73335L29.8776,10.4064L34.5425,14.7661Q35.0949,15.2908,34.8173,16.0004Q34.5396,16.7099,33.7744,16.7203L31.5615,16.7203L31.5615,22.8135L31.5615,22.8163Q31.5538,23.1551,31.3643,23.4361L31.3535,23.4521L31.3403,23.4662Q29.9351,24.9757,27.8832,25.1831L27.8673,25.1847L27.8512,25.1843Q24.7939,25.0943,22.2655,23.3666Q20.337,22.0048,17.9793,21.9054ZM27.8396,22.9178Q25.421,22.8222,23.4353,21.4343Q20.9999,19.7292,18.0281,19.6395L18.0171,19.6392L18.0061,19.6398Q14.5287,19.8443,11.7357,21.9262Q10.7246,22.6961,9.48586,22.9631Q8.30674,22.9631,7.36583,22.2677L7.36583,15.5432Q7.36583,15.0739,7.03403,14.7421Q6.70222,14.4103,6.23298,14.4103L5.78213,14.4103L18.0251,2.65287L23.8342,7.94561Q24.3771,8.47123,25.0587,8.1452Q25.7221,7.85348,25.7341,7.12749L25.7342,4.91051L27.6119,4.91051L27.6119,10.8901Q27.6212,11.3877,27.9745,11.7315L27.9773,11.7342L30.8794,14.3881L30.4951,14.3881Q30.0259,14.3881,29.6941,14.7199Q29.3623,15.0518,29.3623,15.521L29.3623,22.2649Q28.6734,22.7548,27.8396,22.9178ZM0.822508,27.1208L0.834154,27.1295Q4.41382,29.8028,8.83366,30.4552L8.85156,30.4578L8.86966,30.4578Q9.78333,30.4578,10.9671,30.0989Q11.6739,29.8847,13.1539,29.2981Q14.6922,28.6884,15.5079,28.4316Q16.864,28.0045,18.0328,27.8876L18.6853,27.8876Q19.6173,27.8876,20.6642,28.2593Q21.3055,28.487,22.5684,29.1086Q23.9609,29.794,24.7191,30.0569Q26.0031,30.5021,27.2158,30.5021L27.2259,30.5021L27.2358,30.5013Q31.2491,30.1748,34.5391,27.8566Q35.2176,27.5544,35.6267,27.1205Q36.0663,26.654,35.9881,26.2632Q35.9021,25.8329,35.4357,25.499Q34.835,25.0689,34.2923,25.4709Q31.1447,27.8441,27.2099,28.037Q26.1628,28.0358,24.9833,27.6274Q24.2654,27.3789,22.8856,26.7154Q21.5478,26.0721,20.86,25.8305Q19.6983,25.4224,18.6853,25.4224L18.0129,25.4224L18.0053,25.4229Q16.597,25.5104,15.0861,25.9834Q14.1977,26.2615,12.6099,26.926Q11.2894,27.4785,10.6668,27.6753Q9.66227,27.9927,8.86966,27.9927Q6.31202,27.9927,1.7898,24.7594L1.77961,24.7521L1.76873,24.7459Q1.18031,24.4097,0.743223,24.6945Q0.509241,24.8469,0.222488,25.3385Q0.160181,25.4453,0.129485,25.4949Q-0.131961,25.9173,0.144946,26.379Q0.283516,26.6101,0.73721,27.0399L0.822508,27.1208ZM35.6257,31.7108Q36.0685,31.2465,35.9875,30.8686Q35.8973,30.4477,35.4418,30.0894Q34.8333,29.6108,34.2736,30.0106L34.2708,30.0126L34.268,30.0148Q31.1358,32.39,27.21,32.5792Q26.1629,32.5781,24.9833,32.1697Q24.2654,31.9211,22.8856,31.2576Q21.5478,30.6143,20.86,30.3727Q19.6983,29.9647,18.6853,29.9647L18.0123,29.9647L18.0039,29.9652Q16.6046,30.0601,15.1017,30.5301Q14.2177,30.8066,12.6352,31.4641Q11.3007,32.0186,10.6704,32.2161Q9.6531,32.5349,8.84751,32.5349Q6.26748,32.5349,1.78945,29.3457L1.77723,29.337L1.76405,29.3298Q1.17353,29.0093,0.738948,29.2929Q0.504912,29.4457,0.217311,29.9346Q0.158544,30.0345,0.129499,30.0815Q-0.143444,30.5224,0.158891,31.0013Q0.310671,31.2417,0.807836,31.6937L0.824428,31.7088L0.833708,31.7157Q4.40018,34.3921,8.8116,35.0417L8.82946,35.0443L8.84752,35.0443Q9.75953,35.0443,10.9412,34.6867Q11.6468,34.4732,13.1258,33.8881Q14.6699,33.2772,15.4901,33.0196Q16.8543,32.5913,18.0328,32.4741L18.6853,32.4741Q19.6174,32.4741,20.6642,32.8458Q21.3055,33.0735,22.5684,33.6951Q23.9608,34.3806,24.7191,34.6435Q26.0031,35.0886,27.2159,35.0887L27.2259,35.0887L27.2359,35.0878Q31.2491,34.7613,34.5391,32.4431Q35.214,32.1427,35.6257,31.7108Z" fill-rule="evenodd" fill="#FFFFFF" fill-opacity="1"/></g></svg>