<svg xmlns="http://www.w3.org/2000/svg" xmlns:xlink="http://www.w3.org/1999/xlink" fill="none" version="1.1" width="32" height="29.447101593017578" viewBox="0 0 32 29.447101593017578"><g><path d="M23.9172,0L23.9172,3.53257L28.4606,3.53257L28.4606,19.4291C27.6389,19.3658,26.815,19.5199,26.0718,19.876L26.0718,5.92663L5.74888,5.92663L5.74888,19.6632C4.97853,19.4028,4.15427,19.3441,3.35482,19.493L3.35482,3.53257L7.89289,3.53257L7.89289,0L23.9172,0ZM10.287,3.53257L21.5284,3.53257L21.5284,2.38874L10.287,2.38874L10.287,3.53257ZM15.0432,20.3974C14.8849,20.2795,14.7196,20.1711,14.5484,20.0729L14.5484,11.4277L17.1499,11.4277L17.1499,20.5464L16.1764,21.2806L15.0432,20.3974ZM9.33997,20.3974L9.09525,20.5836L9.09525,12.4704L11.6596,12.4704L11.6596,19.4451C10.8139,19.5447,10.0116,19.874,9.33997,20.3974ZM22.7254,20.2165C21.9541,19.7067,21.0484,19.4382,20.1239,19.4451L20.1239,12.4704L22.7254,12.4704L22.7254,20.2165ZM14.027,24.1322C14.6315,24.5922,15.3693,24.8424,16.1285,24.8451L16.1328,24.8451C16.9,24.8485,17.6467,24.5978,18.2565,24.1322L19.4536,23.2384C19.8513,22.936,20.4019,22.936,20.7996,23.2384L21.9806,24.1322C23.2377,25.09,24.9797,25.09,26.2368,24.1322L27.4338,23.2384C27.8315,22.936,28.3821,22.936,28.7798,23.2384L29.9928,24.1322C30.5195,24.4987,31.2415,24.3848,31.6297,23.8738C32.0179,23.3629,31.9342,22.6367,31.4399,22.2275L30.2588,21.3338C29.0017,20.376,27.2597,20.376,26.0027,21.3338L24.8056,22.2275C24.4079,22.5299,23.8574,22.5299,23.4596,22.2275L22.2786,21.3338C21.0215,20.376,19.2795,20.376,18.0225,21.3338L16.8254,22.2275C16.4277,22.5299,15.8771,22.5299,15.4794,22.2275L14.2984,21.3338C13.0413,20.376,11.2993,20.376,10.0422,21.3338L8.84522,22.2275C8.44751,22.5299,7.89693,22.5299,7.49922,22.2275L6.32879,21.3338C5.07174,20.376,3.32973,20.376,2.07268,21.3338L0.519198,22.5095C-0.0453314,22.8974,-0.169826,23.6791,0.246257,24.2232C0.662341,24.7673,1.44931,24.852,1.9716,24.4088L3.51976,23.2384C3.91747,22.936,4.46804,22.936,4.86575,23.2384L6.02022,24.1322C7.27727,25.09,9.01929,25.09,10.2763,24.1322L11.4734,23.2384C11.8711,22.936,12.4217,22.936,12.8194,23.2384L14.027,24.1322ZM14.027,28.6968C14.6379,29.1629,15.3867,29.4119,16.1551,29.4044L16.1551,29.4257C16.9308,29.4393,17.6889,29.1941,18.3097,28.7288L19.5014,27.8137C19.9008,27.5104,20.4534,27.5104,20.8528,27.8137L22.0285,28.7288C23.2868,29.6829,25.0263,29.6829,26.2846,28.7288L27.455,27.8137C27.8544,27.5104,28.407,27.5104,28.8064,27.8137L29.9981,28.7075L30.0672,28.7607C30.6074,29.1815,31.3899,29.0642,31.783,28.5035C32.176,27.9428,32.0196,27.1673,31.4398,26.8029L30.3705,25.9091C29.1122,24.9549,27.3726,24.9549,26.1144,25.9091L24.9227,26.8029C24.525,27.1053,23.9744,27.1053,23.5767,26.8029L22.3796,25.9091C21.1226,24.9513,19.3806,24.9513,18.1235,25.9091L16.9265,26.8029C16.5288,27.1053,15.9782,27.1053,15.5805,26.8029L14.3835,25.9091C13.1264,24.9513,11.3844,24.9513,10.1274,25.9091L8.93032,26.8029C8.53261,27.1053,7.98204,27.1053,7.58433,26.8029L6.3873,25.9091C5.13025,24.9513,3.38823,24.9513,2.13118,25.9091L0.583023,27.0795C0.138796,27.4969,0.0790992,28.1814,0.444372,28.6693C0.809646,29.1572,1.48324,29.2928,2.00882,28.9841L3.55698,27.8137C3.95469,27.5113,4.50527,27.5113,4.90298,27.8137L6.07341,28.7288C7.33046,29.6866,9.07247,29.6866,10.3295,28.7288L11.5265,27.8137C11.9243,27.5113,12.4748,27.5113,12.8725,27.8137L14.027,28.6968Z" fill-rule="evenodd" fill="#FFFFFF" fill-opacity="1"/></g></svg>