<svg xmlns="http://www.w3.org/2000/svg" xmlns:xlink="http://www.w3.org/1999/xlink" fill="none" version="1.1" width="36" height="36" viewBox="0 0 36 36"><g><path d="M34.8489,15.5783L21.1965,1.36919C20.3497,0.488953,19.2143,0,18,0C16.7853,0,15.6501,0.48434,14.8031,1.36919L1.15547,15.5783C-0.254419,17.0452,-0.0732737,18.3123,0.15957,18.8431C0.326889,19.2204,0.885554,20.2494,2.50023,20.2494L4.50105,20.2494L4.50105,31.1797C4.50105,33.6094,6.2089,35.8993,8.65497,35.9956L8.65497,36L11.2958,36C13.7659,36,14.5813,34.3787,14.6191,31.9933L14.6264,31.9887L14.6264,24.4314C14.6264,23.1924,14.4402,22.4986,15.706,22.4986L20.2988,22.4986C21.5642,22.4986,21.376,23.1882,21.376,24.4314L21.3776,29.1236L21.376,29.1236L21.376,31.8174C21.376,31.9428,21.3744,32.101,21.3784,32.2823L21.3784,32.3144L21.3792,32.315C21.4099,33.606,21.7219,35.9998,24.7024,35.9998L27.3434,35.9998L27.3434,35.9954C29.7905,35.9003,31.4991,33.6098,31.4991,31.1795L31.4991,20.2492L33.4999,20.2492C35.1146,20.2492,35.6731,19.2158,35.8406,18.8429C36.0728,18.3123,36.2542,17.0452,34.8489,15.5783ZM33.9001,18L29.2464,18L29.2464,31.1799C29.2464,32.4189,28.4461,33.746,27.1803,33.746L24.5833,33.746C23.8301,33.7151,23.653,33.3986,23.6205,32.8338L23.6205,32.0679C23.6217,31.9871,23.6229,31.9043,23.6229,31.8176L23.6229,29.1238L23.6205,29.1238L23.6205,24.4316C23.6205,21.9493,22.8246,20.2492,20.2934,20.2492L15.7012,20.2492C13.17,20.2492,12.3741,21.9497,12.3741,24.4316L12.3741,32.8643C12.3352,33.4393,12.1366,33.7506,11.2912,33.7506L8.81147,33.7506C7.54726,33.7484,6.74853,32.4225,6.74853,31.1847L6.74853,18.0048L2.09466,18.0048C2.05278,18.0048,2.12732,18.0094,2.09466,18.0048C2.17401,17.8696,2.60243,17.3666,2.82565,17.134L16.4781,2.93411C16.8831,2.50573,17.4596,2.24942,18.0184,2.25423C18.5769,2.24962,19.1165,2.51034,19.5259,2.93411L33.1737,17.1292" fill="#FFFFFF" fill-opacity="1"/></g></svg>