<svg xmlns="http://www.w3.org/2000/svg" xmlns:xlink="http://www.w3.org/1999/xlink" fill="none" version="1.1" width="32" height="28.31144905090332" viewBox="0 0 32 28.31144905090332"><g><path d="M30.9207,0.00000308486L1.08388,0.00000308486C0.79613,-0.000686401,0.520105,0.114228,0.316477,0.319235C0.113309,0.524242,-0.000686376,0.802565,0.0000031096,1.09238L0.0000031096,20.7692C-0.000686376,21.0594,0.113309,21.3373,0.316477,21.5425C0.520105,21.7473,0.79613,21.8625,1.08388,21.8615L5.6354,21.8615C5.96498,21.8615,6.27203,21.7115,6.47956,21.4566L12.5436,13.8784L15.3114,16.1811C15.7538,16.55,16.404,16.5042,16.797,16.0813L22.1792,10.2278C22.7027,10.551,23.317,10.7328,23.9764,10.7328C25.8863,10.7328,27.4438,9.16695,27.4438,7.23685C27.4438,5.30721,25.8907,3.74161,23.9764,3.74161C22.0663,3.74161,20.5085,5.30721,20.5085,7.23685C20.5085,7.70133,20.5989,8.14743,20.7662,8.55262L15.9032,13.8373L13.0809,11.4884C12.8598,11.3018,12.5707,11.2156,12.2818,11.2428C11.9929,11.2697,11.7309,11.4156,11.5457,11.6431L5.12059,19.677L2.16752,19.677L2.16752,2.18498L29.8327,2.18498L29.8327,19.677L14.8869,19.677C14.5994,19.6761,14.3234,19.791,14.12,19.996C13.9166,20.201,13.8026,20.4793,13.8033,20.7692L13.8033,26.1267L7.43703,26.1267C6.83626,26.1267,6.35316,26.6137,6.35316,27.2191C6.35316,27.8244,6.83649,28.3114,7.43703,28.3114L22.0077,28.3114C22.608,28.3114,23.0914,27.8244,23.0914,27.2191C23.0918,26.929,22.978,26.6509,22.7746,26.4457C22.5712,26.2409,22.2955,26.1258,22.0077,26.1267L15.9708,26.1267L15.9708,21.8615L30.9163,21.8615C31.2041,21.8625,31.4799,21.7473,31.6833,21.5423C31.8869,21.3373,32.0007,21.0592,32,20.7692L32,1.09238C32.0043,0.48678,31.5169,0.00000308486,30.9207,0.00000308486ZM23.9764,5.92154C24.6944,5.92154,25.2768,6.50898,25.2768,7.23271C25.2768,7.95644,24.6944,8.54342,23.9764,8.54342C23.2582,8.54342,22.6761,7.95644,22.6761,7.23271C22.6761,6.50898,23.2582,5.92154,23.9764,5.92154Z" fill="#FFFFFF" fill-opacity="1"/></g></svg>