<svg xmlns="http://www.w3.org/2000/svg" xmlns:xlink="http://www.w3.org/1999/xlink" fill="none" version="1.1" width="36" height="33.21104049682617" viewBox="0 0 36 33.21104049682617"><g><path d="M9.30855,10.2663L1.43856,10.2663C0.729297,10.2663,0.156278,9.69323,0.156278,8.98397L0.156278,1.28228C0.156278,0.573019,0.729297,0,1.43856,0L9.30855,0C10.0178,0,10.5908,0.573019,10.5908,1.28228L10.5908,3.85085L34.7177,3.85085C35.427,3.85085,36,4.42386,36,5.13313C36,5.84239,35.427,6.4154,34.7177,6.4154L10.5908,6.4154L10.5908,8.98798C10.5908,9.69323,10.0178,10.2663,9.30855,10.2663ZM2.72084,7.70169L8.02627,7.70169L8.02627,2.56456L2.72084,2.56456L2.72084,7.70169ZM26.8077,22.3598L34.6817,22.3598C35.3869,22.3598,35.9639,21.7867,35.9599,21.0775L35.9599,13.3758C35.9599,12.6665,35.3869,12.0935,34.6776,12.0935L26.8077,12.0935C26.0984,12.0935,25.5254,12.6665,25.5254,13.3758L25.5254,15.9443L1.39849,15.9443C0.689225,15.9443,0.116207,16.5174,0.116207,17.2266C0.116207,17.9359,0.689225,18.5089,1.39849,18.5089L25.5254,18.5089L25.5254,21.0775C25.5254,21.7867,26.0984,22.3598,26.8077,22.3598ZM33.3954,19.7952L28.0899,19.7952L28.0899,14.6581L33.3954,14.6581L33.3954,19.7952ZM1.28228,33.211L9.15628,33.211C9.86554,33.211,10.4386,32.638,10.4346,31.9328L10.4346,29.3602L34.5654,29.3602C35.2707,29.3602,35.8437,28.7872,35.8437,28.0779C35.8437,27.3687,35.2707,26.7956,34.5614,26.7956L10.4346,26.7956L10.4346,24.2271C10.4346,23.5178,9.86153,22.9448,9.15227,22.9448L1.28228,22.9448C0.573019,22.9448,0,23.5178,0,24.2271L0,31.9288C0,32.638,0.573019,33.211,1.28228,33.211ZM7.86999,30.6465L2.56456,30.6465L2.56456,25.5093L7.86999,25.5093L7.86999,30.6465Z" fill-rule="evenodd" fill="#FFFFFF" fill-opacity="1"/></g></svg>