<svg xmlns="http://www.w3.org/2000/svg" xmlns:xlink="http://www.w3.org/1999/xlink" fill="none" version="1.1" width="36" height="33.81340408325195" viewBox="0 0 36 33.81340408325195"><g><path d="M35.2145,25.5955L30.7211,25.5955L30.7211,4.09426C30.7582,1.98886,29.173,0.207565,27.0775,0L5.09984,0C3.01249,0.219646,1.43758,1.99561,1.46909,4.09426L1.46909,8.07264C1.46909,8.49928,1.81495,8.84514,2.24159,8.84514L4.32734,8.84514L4.32734,15.8363C4.42484,16.3308,4.83085,16.7056,5.3316,16.7633C5.83234,16.7056,6.23835,16.3308,6.33585,15.8363L6.33585,8.84514L23.7815,8.84514C23.9837,8.84706,24.1783,8.76828,24.3222,8.62626C24.4477,8.4698,24.5118,8.27296,24.5025,8.07264L24.5025,4.09426C24.5036,2.94312,25.4371,2.01054,26.5882,2.01054C27.7394,2.01054,28.6729,2.94312,28.674,4.09426L28.674,30.2048C28.6206,30.7972,28.8166,31.3851,29.2148,31.827L16.1466,31.827C15.8518,31.8677,15.5987,32.0575,15.4771,32.3292C15.3351,32.6037,15.3351,32.9301,15.4771,33.2047C15.6059,33.4364,15.8634,33.8098,16.1466,33.8098L32.382,33.8098C34.378,33.8169,35.9999,32.2008,35.9999,30.2048L35.9999,26.3423C36.0035,26.1335,35.9194,25.9327,35.7681,25.7887C35.6195,25.6459,35.4206,25.5673,35.2145,25.5698L35.2145,25.5955ZM22.5584,4.09426L22.5584,6.86239L3.47759,6.86239L3.47759,4.09426C3.48465,2.94738,4.4164,2.02138,5.56335,2.02138L23.215,2.02138C22.8032,2.6335,22.5876,3.35656,22.597,4.09426L22.5584,4.09426ZM32.3563,32.0073C31.9831,32.0772,31.5993,31.9621,31.3263,31.6983C30.9378,31.3087,30.7201,30.7807,30.7211,30.2305L30.7211,27.5783L33.9785,27.5783L33.9785,30.1533C33.9916,30.7058,33.772,31.2383,33.3734,31.621C33.1131,31.898,32.7301,32.024,32.3563,31.9558L32.3563,32.0073ZM16.6745,23.9733C16.5765,23.6682,16.3197,23.4411,16.005,23.381L11.4472,22.5055L9.18123,18.4113C9.02697,18.128,8.73128,17.9506,8.40873,17.9478C8.08617,17.9506,7.79048,18.128,7.63622,18.4113L5.35735,22.454L0.77384,23.3167C0.454212,23.3724,0.191611,23.6003,0.0914638,23.9089L0.0399626,23.9089C-0.0557607,24.2124,0.0234215,24.544,0.245963,24.7715L3.41322,28.1448L2.82097,32.754C2.78008,33.0742,2.91862,33.3908,3.18147,33.578C3.44627,33.7636,3.7902,33.7931,4.08272,33.6553L8.27997,31.7112L12.5674,33.7325C12.8621,33.8666,13.2062,33.8322,13.4686,33.6424C13.7249,33.45,13.8617,33.1373,13.8291,32.8184L13.2626,28.2349L16.4556,24.8488C16.6778,24.6158,16.7567,24.2809,16.6616,23.9733L16.6745,23.9733ZM11.885,27.1148C11.6137,27.2714,11.4467,27.5611,11.4472,27.8744C11.4281,27.9722,11.4281,28.0728,11.4472,28.1705L11.8464,31.4537L8.97522,30.0889C8.74109,29.8779,8.41162,29.8091,8.1126,29.9087C8.01727,29.9338,7.92617,29.9729,7.84222,30.0245L4.82947,31.415L5.18997,28.2478C5.33664,27.9835,5.33664,27.6623,5.18997,27.398C5.13164,27.3122,5.06239,27.2343,4.98397,27.1663L2.67934,24.7458L5.82085,24.1535C6.13705,24.1924,6.44891,24.0538,6.63197,23.793C6.69865,23.7244,6.74731,23.6404,6.7736,23.5484L8.38297,20.6L9.92798,23.3939C9.99224,23.7037,10.2187,23.9548,10.5202,24.0505C10.6115,24.0842,10.7067,24.1058,10.8035,24.1149L14.0609,24.7458L11.885,27.1148ZM25.3007,13.9308C25.3079,14.4783,24.8698,14.928,24.3222,14.935L10.9194,14.935C10.3718,14.928,9.9337,14.4783,9.94085,13.9308C9.93363,13.3854,10.3738,12.9394,10.9194,12.9394L24.3222,12.9394C24.8677,12.9393,25.3079,13.3853,25.3007,13.9308ZM24.966,20.3683C24.9732,20.9137,24.533,21.3597,23.9875,21.3597L15.593,21.3597C15.0455,21.3597,14.6016,20.9158,14.6016,20.3683C14.6016,19.8208,15.0455,19.3769,15.593,19.3769L23.9875,19.3769C24.533,19.3769,24.9732,19.8228,24.966,20.3683ZM24.966,26.8058C24.9732,27.3512,24.533,27.7972,23.9875,27.7972L18.5929,27.7972C18.0453,27.7972,17.6015,27.3533,17.6015,26.8058C17.6015,26.2583,18.0453,25.8144,18.5929,25.8144L23.9875,25.8144C24.533,25.8144,24.9732,26.2604,24.966,26.8058Z" fill="#FFFFFF" fill-opacity="1"/></g></svg>