<svg xmlns="http://www.w3.org/2000/svg" xmlns:xlink="http://www.w3.org/1999/xlink" fill="none" version="1.1" width="32" height="32" viewBox="0 0 32 32"><defs><clipPath id="master_svg0_12920_32453"><rect x="0" y="0" width="32" height="32" rx="0"/></clipPath></defs><g clip-path="url(#master_svg0_12920_32453)"><g><path d="M7.868,11.8125C7.868,11.0868,8.45526,10.4996,9.18097,10.4996L22.305,10.4996C23.0293,10.4996,23.618,11.0868,23.618,11.8125C23.618,12.5368,23.0293,13.1241,22.305,13.1241L9.18094,13.1241C8.45526,13.124,7.868,12.5368,7.868,11.8125ZM27.6197,25.0904L20.0649,25.0904C20.0537,25.0904,20.0454,25.0959,20.0342,25.0959C19.2442,25.0959,18.6038,24.4597,18.6038,23.6753C18.6038,22.8923,19.2441,22.2927,20.0342,22.2927C20.1461,22.2927,20.2461,22.3101,20.3502,22.319L27.2548,22.319C28.1496,22.319,28.8768,21.5164,28.8768,20.5265L28.8768,4.51919C28.8768,3.5292,28.1496,2.60632,27.2548,2.60632L4.22551,2.60632C3.33064,2.60632,2.60353,3.52917,2.60353,4.51919L2.60353,20.5264C2.60353,21.5164,3.33064,22.319,4.22551,22.319L8.91106,22.319C9.85556,22.319,10.1373,22.6965,10.1961,22.7651L15.845,29.341C16.4183,30.0094,16.6868,31.0036,15.9792,31.672C15.3361,32.276,14.1587,31.9809,13.5827,31.314L8.11407,25.1855C8.09033,25.1575,8.05012,25.1201,8.0229,25.0904L3.90951,25.0904C1.7646,25.0904,0,23.2167,0,20.9082L0,4.18221C0,1.87368,1.7646,0,3.90951,0L27.6197,0C29.7661,0,31.5055,1.87364,31.5055,4.18221L31.5055,20.9082C31.5055,23.2167,29.7661,25.0904,27.6197,25.0904Z" fill="#FFFFFF" fill-opacity="1"/></g></g></svg>