<svg xmlns="http://www.w3.org/2000/svg" xmlns:xlink="http://www.w3.org/1999/xlink" fill="none" version="1.1" width="32" height="32" viewBox="0 0 32 32"><g><g><path d="M2.32249,22.6898L16.5701,22.6898L16.5701,24.7927L2.32249,24.7927C1.04193,24.7927,0,23.7497,0,22.468L0,4.32468C0,3.0427400000000002,1.04193,2,2.32249,2L29.3527,2C30.6332,2,31.6752,3.0427400000000002,31.6752,4.32468L31.6752,9.514009999999999L29.5742,9.514009999999999L29.5742,4.32468C29.5742,4.20243,29.4748,4.10294,29.3527,4.10294L2.32249,4.10294C2.20036,4.10294,2.10099,4.20243,2.10099,4.32468L2.10099,22.468C2.10099,22.5903,2.20036,22.6898,2.32249,22.6898ZM8.26757,18.6483L8.26757,6.71192C8.26757,6.13219,8.73907,5.66045,9.31881,5.66045C9.89877,5.66045,10.3705,6.13219,10.3705,6.71192L10.3705,18.6483C10.3705,19.2282,9.89877,19.6997,9.31881,19.6997C8.73907,19.6997,8.26757,19.2282,8.26757,18.6483ZM28.4436,19.7553L31.7253,22.9277C32.0844,23.2868,32.0922,23.8755,31.744,24.2413L31.5673,24.418C31.3851,24.6002,31.143,24.6919,30.9011,24.6919C30.6676,24.6919,30.4343,24.6067,30.2547,24.4357L26.9745,21.2804C25.3959,22.5825,23.399,23.2661,21.3424,23.2068C19.2401,23.1464,17.2505,22.3109,15.7397,20.8544C14.1206,19.2976,13.2058,17.1935,13.1637,14.9297C13.1217,12.6673,13.9565,10.52901,15.5142,8.90884C17.0728,7.28798,19.1747,6.37093,21.4328,6.32681C23.6944,6.28292,25.8337,7.11955,27.4598,8.683430000000001C28.945,10.11426,29.8526,12.0433,30.0156,14.1147C30.1748,16.1368,29.6168,18.1363,28.4436,19.7553ZM21.7054,21.1182C23.4037,21.0853,24.9863,20.3948,26.1616,19.174C27.3366,17.953400000000002,27.9657,16.3459,27.933,14.6473C27.9003,12.949,27.2099,11.36656,25.989,10.19124C24.7988,9.04533,23.2402,8.41849,21.5886,8.41849C21.5464,8.41849,21.5046,8.418949999999999,21.4624,8.41987C19.764,8.4525,18.1815,9.14298,17.0062,10.3638C14.5772,12.8868,14.6545,16.916600000000003,17.1787,19.3466C18.3992,20.5216,20.0078,21.1499,21.7054,21.1182ZM3.97874,10.83851L3.97874,18.637C3.97874,19.2167,4.45048,19.6885,5.03032,19.6885C5.61006,19.6885,6.08168,19.2167,6.08168,18.637L6.08168,10.83851C6.08168,10.25878,5.61006,9.787040000000001,5.03032,9.787040000000001C4.45048,9.787040000000001,3.97874,10.25878,3.97874,10.83851ZM25.9587,28.5387L5.74643,28.5387C5.16658,28.5387,4.69496,29.0103,4.69496,29.59C4.69496,30.1698,5.16658,30.6415,5.74643,30.6415L25.9587,30.6415C26.5385,30.6415,27.0101,30.1698,27.0101,29.59C27.0101,29.0103,26.5385,28.5387,25.9587,28.5387Z" fill-rule="evenodd" fill="#FFFFFF" fill-opacity="1"/></g></g></svg>