<svg xmlns="http://www.w3.org/2000/svg" xmlns:xlink="http://www.w3.org/1999/xlink" fill="none" version="1.1" width="34" height="34" viewBox="0 0 34 34"><g><path d="M17.0018,23.3749C13.3917,23.3749,10.632,20.6128,10.632,17C10.632,13.3872,13.3917,10.6268,17.0018,10.6268C20.6119,10.6268,23.3751,13.3889,23.3751,17C23.3751,20.6111,20.6136,23.3749,17.0018,23.3749ZM17.0018,12.75C14.6553,12.75,12.753,14.6528,12.753,17C12.753,19.3472,14.6553,21.2499,17.0018,21.2499C19.3484,21.2499,21.2507,19.3472,21.2507,17C21.2395,14.6574,19.3437,12.7612,17.0018,12.75ZM21.2507,33.9946L12.7547,33.9946C12.1541,34.0316,11.6565,33.5347,11.6925,32.9339L11.6925,28.8957C10.8901,28.517,10.1106,28.0915,9.35801,27.6214L5.95962,29.7464C5.42992,30.0257,4.77426,29.8383,4.47219,29.3211L0.223397,21.887C-0.200095,21.2499,0.011651,20.6127,0.650341,20.4009L4.04873,18.2794L4.04873,15.7256L0.648615,13.6007C0.00995773,13.3889,-0.20524,12.7466,0.221704,12.1146L4.47053,4.67888C4.68231,4.25525,5.32439,4.04172,5.95624,4.46705L9.35463,6.59204C9.99329,6.16671,10.8403,5.52955,11.6908,5.31605L11.6908,1.06776C11.6528,0.46538,12.1507,-0.0342759,12.753,0.00184324L21.2489,0.00184324C21.8498,-0.0340618,22.3471,0.463294,22.3112,1.06434L22.3112,5.10418C23.1132,5.48464,23.8932,5.9101,24.6473,6.37851L28.044,4.25521C28.5729,3.97672,29.2272,4.16329,29.5297,4.67885L33.7786,12.1146C34.2038,12.7517,33.992,13.3889,33.3533,13.6007L29.9549,15.7257L29.9549,18.2794L33.3533,20.4026C33.7803,20.6161,33.992,21.2567,33.7803,21.8888L29.5314,29.3244C29.318,29.7498,28.6776,29.9616,28.044,29.7498L24.6474,27.6248C24.0104,28.0502,23.1616,28.6873,22.3112,28.8992L22.3112,32.9373C22.3471,33.5381,21.8496,34.035,21.249,33.9981L21.2507,33.9946ZM13.8169,31.8714L20.1885,31.8714L20.1885,28.2586C20.1805,27.8118,20.4277,27.3995,20.8255,27.1961C21.8842,26.7579,22.8832,26.1874,23.7986,25.4982C24.197,25.2847,24.6758,25.2847,25.0743,25.4982L28.2574,27.4096L31.4441,21.8871L28.2574,19.9739C27.834,19.5503,27.6222,19.1198,27.834,18.6996C27.834,18.0624,28.0457,17.6371,28.0457,17C28.0457,16.3629,28.0457,15.9375,27.834,15.2918C27.8426,14.8982,27.993,14.5209,28.2574,14.2293L31.4441,12.3161L28.2574,6.80384L25.0743,8.71358C24.6758,8.92706,24.197,8.92706,23.7986,8.71358C22.8864,8.02501,21.8909,7.45452,20.8357,7.01568C20.4087,6.59201,20.197,6.16156,20.197,5.74134L20.197,2.13032L13.8169,2.13032L13.8169,5.74141C13.8249,6.18867,13.5769,6.60124,13.1782,6.80391C12.1198,7.24476,11.1218,7.81877,10.2085,8.51207C9.80937,8.72284,9.33194,8.72284,8.93283,8.51207L5.74618,6.80388L2.56299,12.3264L5.74791,14.2396C6.17313,14.4514,6.38491,14.875,6.17313,15.3004C6.17313,15.9375,5.96135,16.3629,5.96135,17.0086C5.96135,17.6543,5.96135,18.0711,6.17313,18.7082C6.38491,19.1335,6.17313,19.5623,5.74791,19.7707L2.56299,21.6753L5.74618,27.1961L8.93283,25.283C9.33067,25.0695,9.80896,25.0695,10.2068,25.283C11.1208,25.9762,12.1193,26.5502,13.1782,26.9911C13.5769,27.1938,13.8249,27.6064,13.8169,28.0536L13.8169,31.8783L13.8169,31.8714Z" fill="#FFFFFF" fill-opacity="1"/></g></svg>