<svg xmlns="http://www.w3.org/2000/svg" xmlns:xlink="http://www.w3.org/1999/xlink" fill="none" version="1.1" width="251" height="72" viewBox="0 0 251 72"><defs><filter id="master_svg0_10045_08981" filterUnits="objectBoundingBox" color-interpolation-filters="sRGB" x="-14" y="-11" width="243" height="64"><feFlood flood-opacity="0" result="BackgroundImageFix"/><feColorMatrix in="SourceAlpha" type="matrix" values="0 0 0 0 0 0 0 0 0 0 0 0 0 0 0 0 0 0 127 0"/><feOffset dy="1" dx="0"/><feGaussianBlur stdDeviation="2.5"/><feColorMatrix type="matrix" values="0 0 0 0 0 0 0 0 0 0 0 0 0 0 0 0 0 0 0.20000000298023224 0"/><feBlend mode="normal" in2="BackgroundImageFix" result="effect1_dropShadow"/><feColorMatrix in="SourceAlpha" type="matrix" values="0 0 0 0 0 0 0 0 0 0 0 0 0 0 0 0 0 0 127 0"/><feOffset dy="2" dx="0"/><feGaussianBlur stdDeviation="1"/><feColorMatrix type="matrix" values="0 0 0 0 0 0 0 0 0 0 0 0 0 0 0 0 0 0 0.14000000059604645 0"/><feBlend mode="normal" in2="effect1_dropShadow" result="effect2_dropShadow"/><feColorMatrix in="SourceAlpha" type="matrix" values="0 0 0 0 0 0 0 0 0 0 0 0 0 0 0 0 0 0 127 0"/><feMorphology radius="-2" operator="dilate" in="SourceAlpha" result="effect3_dropShadow"/><feOffset dy="3" dx="0"/><feGaussianBlur stdDeviation="0.5"/><feColorMatrix type="matrix" values="0 0 0 0 0 0 0 0 0 0 0 0 0 0 0 0 0 0 0.11999999731779099 0"/><feBlend mode="normal" in2="effect2_dropShadow" result="effect3_dropShadow"/><feBlend mode="normal" in="SourceGraphic" in2="effect3_dropShadow" result="shape"/></filter></defs><g filter="url(#master_svg0_10045_08981)"><path d="M29.5208,35.6797L30.4062,29.3255L27.9583,29.3255L28.5182,25.4062L30.9661,25.4062L31.4349,22.16406L30.1198,20.64062L38.400999999999996,20.64062L37.724000000000004,25.4062L41.1224,25.4062L41.6042,22.08594L40.3542,20.60156L48.4401,20.60156L47.763,25.4062L50.4062,25.4062L49.8464,29.3255L47.2031,29.3255L46.2786,35.6797L49.7552,35.6797L49.1953,39.6901L25.6797,39.6901L26.2396,35.6797L29.5208,35.6797ZM14.403646,49.4948L18.244790000000002,38.1667L25.0026,38.1667L21.161459999999998,49.4948L14.403646,49.4948ZM47.8411,49.4557L40.7188,49.4557L38.322900000000004,40.888000000000005L45.4453,40.888000000000005L47.8411,49.4557ZM31.6823,49.3646L24.4036,49.3646L29.1953,40.888000000000005L36.1224,40.888000000000005L31.6823,49.3646ZM18.47917,36.525999999999996L17.95833,29.6771L24.7161,29.6771L25.237000000000002,36.525999999999996L18.47917,36.525999999999996ZM19.63802,28.1667L19.11719,21.330730000000003L25.875,21.330730000000003L26.3958,28.1667L19.63802,28.1667ZM36.2786,35.6797L39.677099999999996,35.6797L40.5625,29.3255L37.164100000000005,29.3255L36.2786,35.6797ZM67.0693,26.057299999999998L59.5042,47.3333L51.913,47.3333L58.15,29.8594L54.7516,29.8594L55.2724,26.057299999999998L67.0693,26.057299999999998ZM61.4312,49.5339L65.0641,45.7839L68.34530000000001,22.098959999999998L67.0693,20.5625L76.1839,20.5625L72.512,46.8776Q72.34270000000001,47.9974,71.40520000000001,48.7656Q70.46770000000001,49.5339,69.3089,49.5339L61.4312,49.5339ZM87.0302,24.5339L84.0224,29.8594L86.1057,47.3333L78.5016,47.3333L76.43119999999999,29.8594L79.426,24.5339L87.0302,24.5339ZM97.2089,26.9818L97.6516,28.101599999999998L99.0187,26.317700000000002L99.5396,25.0807L91.2974,25.0807L91.8182,21.356769999999997L105.7766,21.356769999999997L105.2557,25.1979L100.6594,30.8229L104.9302,30.8229L103.8495,38.414100000000005L99.8521,38.414100000000005L100.412,34.1562L99.0578,34.1562L97.3391,46.3698Q97.1698,47.5286,96.3104,48.2708Q95.451,49,94.3703,49L88.2505,49L91.2974,45.2891L92.8469,34.1562L89.6568,34.1562L90.1776,30.8229L94.0187,30.8229L92.2479,26.9818L97.2089,26.9818ZM124.813,21.317709999999998L124.292,25.1979L117.652,25.1979L116.935,27.099L123.368,27.099L121.336,41.3568L117.417,41.3568L116.688,40.4193L118.094,30.6667L110.8547,30.6667L109.4484,40.4193L108.4979,41.3568L104.5786,41.3568L106.6099,27.099L111.688,27.099L112.4172,25.1979L106.2193,25.1979L106.7271,21.317709999999998L124.813,21.317709999999998ZM116.688,31.5521L115.49,39.989599999999996L121.011,48.9609L114.54,48.9609L112.5344,44.1953L108.7323,48.9609L102.6516,48.9609L110.6984,39.950500000000005L111.8573,31.5521L116.688,31.5521ZM138.963,49.2734L142.921,21.39583L161.919,21.39583L161.124,26.9818Q160.955,28.1276,160.07,28.9089Q159.197,29.6771,158.039,29.6771L153.156,29.6771L154.874,28.2318L155.317,25.1979L148.481,25.1979L147.596,31.1745L160.526,31.1745L159.679,37.2161L155.161,42.5938L158.716,49.2734L152.635,49.2734L151.437,47.0339L149.601,49.2734L138.963,49.2734ZM130.239,35.6927L131.203,29L128.156,29L128.716,25.1979L131.762,25.1979L132.244,21.799480000000003L131.24200000000002,20.64062L139.236,20.64062L138.598,25.1979L141.64499999999998,25.1979L141.08499999999998,29L138.078,29L137.322,34.0911L140.434,33.414100000000005L139.874,37.6068L136.723,38.2839L135.565,46.6302Q135.356,47.7891,134.471,48.5312Q133.598,49.2734,132.44,49.2734L125.278,49.2734L128.885,45.5495L129.679,39.7943L126.515,40.4714L127.114,36.3698L130.239,35.6927ZM145.317,47.112L149.119,42.6328L146.645,37.9453L145.317,47.112ZM147.036,34.911500000000004L146.958,35.6667L151.515,35.6667L152.843,38.1927L154.966,35.6667L155.083,34.911500000000004L147.036,34.911500000000004ZM165.427,32.92L167.707,27.36L165.667,27.36L166.187,23.48L169.307,23.48L169.987,21.8L169.147,20.6L175.067,20.6L173.947,23.48L181.107,23.48L180.587,27.36L172.427,27.36L170.147,33.16L171.947,33.16L172.627,28.52L177.507,28.52L176.827,33.16L179.107,33.16L178.627,36.72L176.347,36.72L175.907,39.8L178.787,39.4L178.227,43.4L175.307,43.8L174.547,49.32L168.587,49.32L169.267,44.6L162.867,45.44L163.427,41.44L169.827,40.6L170.387,36.72L164.907,36.72L165.427,32.92ZM189.627,35.08L191.587,35.08L195.747,49.28L189.907,49.28L187.427,40.04L183.347,49.32L177.307,49.32L185.147,31.76L191.107,31.76L189.627,35.08ZM189.507,23.6L198.467,23.6L197.867,27.880000000000003L196.627,31.28L191.427,31.28L192.827,27.439999999999998L188.067,27.439999999999998L186.707,31.04L180.667,31.04L184.067,21.6L183.267,20.6L190.667,20.6L189.507,23.6ZM214.347,23.84L213.507,22.84L220.747,22.84L219.747,26.240000000000002L221.747,26.240000000000002L222.347,22.08L221.067,20.56L230.187,20.56L229.387,26.240000000000002L234.707,26.240000000000002L234.147,30.04L228.827,30.04L228.067,35.36L234.187,35.36L233.627,39.16L227.547,39.16L226.107,49.36L218.507,49.36L219.947,39.16L210.827,39.16L211.387,35.36L220.467,35.36L221.227,30.04L218.667,30.04L217.707,33.480000000000004L211.627,33.480000000000004L214.347,23.84ZM211.707,25.119999999999997L211.667,25.119999999999997L208.267,49.36L201.027,49.36L204.227,26.6L201.907,27.04L202.547,22.48L212.347,20.56L211.707,25.119999999999997Z" fill="#0090FF" fill-opacity="1"/><path d="M211.512,26.221L210.709,31.9448L210.198,35.5922L209.373,41.475899999999996L208.267,49.36L201.027,49.36L201.589,45.36L203.639,30.7828L204.121,27.3508L204.227,26.6L202.027,27.017200000000003L201.907,27.04L202.012,26.288600000000002L202.328,24.040100000000002L202.494,22.85736L202.547,22.48L208.193,21.373730000000002L212.347,20.56L212.192,21.66093L211.98,23.1722L211.758,24.7513L211.707,25.119999999999997L211.667,25.119999999999997L211.512,26.221ZM213.231,27.7949L212.755,29.48L212.225,31.36L211.627,33.480000000000004L217.707,33.480000000000004L218.298,31.36L218.667,30.04L221.227,30.04L221.198,30.24L221.129,30.727L220.655,34.04L220.467,35.36L211.387,35.36L211.164,36.8691L210.827,39.16L219.947,39.16L219.918,39.36L219.382,43.16L219.071,45.36L218.507,49.36L226.107,49.36L227.547,39.16L233.627,39.16L234.187,35.36L228.067,35.36L228.095,35.16L228.638,31.36L228.827,30.04L234.147,30.04L234.707,26.240000000000002L229.387,26.240000000000002L229.415,26.04L229.623,24.560000000000002L229.95,22.240000000000002L230.187,20.56L221.067,20.56L222.347,22.08L221.989,24.560000000000002L221.747,26.240000000000002L219.747,26.240000000000002L219.805,26.04L219.828,25.9633L220.517,23.6207L220.747,22.84L213.507,22.84L214.347,23.84L213.897,25.4329L213.507,26.8171L213.231,27.7949ZM213.905,18.84L220.006,18.84L221.067,16.56L230.187,16.56L234.148,21.11788L233.99,22.240000000000002L234.707,22.240000000000002L238.664,26.8232L238.104,30.6232L235.495,32.8756L238.144,35.943200000000004L237.584,39.7432L233.627,43.16L231.022,43.16L230.067,49.9192L226.107,53.36L218.507,53.36L214.546,48.8008L215.342,43.16L213.175,43.16L212.228,49.9156L208.267,53.36L201.027,53.36L198.158,50.0603L195.747,53.28L189.907,53.28L186.919,50.9883L183.347,53.32L177.307,53.32L176.31,51.7831L174.547,53.32L168.587,53.32L165.011,49.1928L163.387,49.406L161.925,47.9307L158.716,53.2734L152.635,53.2734L151.296,52.4712L149.601,53.2734L138.963,53.2734L137.30599999999998,51.3642Q137.18200000000002,51.4778,137.051,51.5876Q137.046,51.5922,137.04000000000002,51.5968Q135.055,53.2734,132.44,53.2734L125.278,53.2734L123.363,48.7521L121.011,52.9609L114.54,52.9609L112.0024,51.2759L111.8591,51.4555L108.7323,52.9609L102.6516,52.9609L100.7847,48.7907Q100.1686,50.224,98.9249,51.2981L98.8983,51.3209Q96.9194,53,94.3703,53L88.2505,53L86.991,50.3362L86.1057,51.3333L78.5016,51.3333L76.01429999999999,49.1233Q75.3646,50.6926,73.9405,51.8595Q71.8973,53.5339,69.3089,53.5339L61.4312,53.5339L60.2702,50.7927L59.5042,51.3333L51.913,51.3333L50.7275,49.6515L47.8411,53.4557L40.7188,53.4557L36.8665,50.5329L36.4208,48.9389L35.2256,51.2206L31.6823,53.3646L24.4036,53.3646L23.50111,51.8176L21.161459999999998,53.4948L14.403646,53.4948L10.61549,48.2103L14.45664,36.8822L14.507977,36.8454L14.490682,36.8293L13.9698491,29.9804L15.62829,28.191000000000003L15.12875,21.634610000000002L19.11719,17.33073L25.875,17.33073L28.633499999999998,19.88708L30.1198,16.64062L38.400999999999996,16.64062L39.660799999999995,18.09198L40.3542,16.60156L48.4401,16.60156L52.401,21.15973L52.0923,23.3503L52.8236,24.1935L55.2724,22.057290000000002L64.3129,22.057290000000002L64.3832,21.55005L64.7071,21.594929999999998L67.0693,16.5625L76.1839,16.5625L79.6395,20.53386L87.0302,20.53386L87.7273,21.72824L87.8568,20.80272L91.8182,17.35677L105.7766,17.35677L106.1697,17.80686L106.7271,17.317709999999998L124.813,17.317709999999998L128.27800000000002,21.27894L128.284,21.238039999999998L128.615,21.284959999999998L128.716,21.19792L129.15800000000002,21.19792L131.24200000000002,16.64062L139.236,16.64062L141.196,18.89356L142.921,17.39583L161.919,17.39583L164.789,20.70295L166.187,19.48L167.647,19.48L169.147,16.6L175.067,16.6L177.037,19.48L181.107,19.48L181.607,20.05232L183.267,16.6L190.667,16.6L192.723,19.6L198.467,19.6L199.577,20.87717L201.778,18.55463L211.578,16.63463L213.905,18.84ZM194.428,23.6L189.507,23.6L189.569,23.439999999999998L190.667,20.6L183.267,20.6L184.067,21.6L183.744,22.49481L183.267,23.821199999999997L182.107,27.04L181.395,29.0192L180.691,30.9723L180.667,31.04L186.707,31.04L187.946,27.759999999999998L188.067,27.439999999999998L192.827,27.439999999999998L192.768,27.6L192.133,29.3417L191.5,31.08L191.427,31.28L196.627,31.28L197.867,27.880000000000003L197.906,27.6L198.049,26.5823L198.467,23.6L194.428,23.6ZM199.222,33.4638L196.627,35.28L195.813,35.28L197.944,42.5537L199.222,33.4638ZM191.881,36.085L191.645,35.28L191.587,35.08L189.627,35.08L190.273,33.6309L191.107,31.76L185.147,31.76L183.682,35.04L181.877,39.0828L179.154,45.1821L179.093,45.32L178.142,47.449L177.307,49.32L183.347,49.32L184.855,45.8892L187.427,40.04L189.083,46.2112L189.907,49.28L195.747,49.28L194.575,45.28L191.881,36.085ZM175.396,43.787800000000004L176.352,43.656800000000004L178.227,43.4L178.602,40.72L178.675,40.195499999999996L178.787,39.4L177.699,39.551L177.26,39.611999999999995L176.347,39.7389L175.907,39.8L175.924,39.6781L176.019,39.0126L176.347,36.72L178.627,36.72L178.659,36.4792L178.733,35.9347L179.062,33.487700000000004L179.107,33.16L176.827,33.16L176.871,32.8585L176.891,32.72L176.92,32.519999999999996L177.09,31.36L177.261,30.194L177.413,29.16L177.507,28.52L172.627,28.52L172.427,29.8847L171.947,33.16L170.147,33.16L170.245,32.9106L170.32,32.72L171.719,29.16L172.427,27.36L180.587,27.36L181.033,24.026600000000002L181.107,23.48L173.947,23.48L173.993,23.36L175.067,20.6L169.147,20.6L169.307,20.82855L169.987,21.8L169.307,23.48L166.187,23.48L165.773,26.567L165.667,27.36L167.707,27.36L167.657,27.48L167.6,27.6192L166.066,31.36L165.509,32.72L165.427,32.92L164.907,36.72L170.387,36.72L170.323,37.16L169.827,40.6L168.912,40.72L168.84,40.7295L163.427,41.44L162.867,45.44L163.933,45.3L165.147,45.1406L166.981,44.9L169.267,44.6L169.251,44.709900000000005L169.163,45.32L168.674,48.7121L168.587,49.32L174.547,49.32L174.576,49.1098L175.269,44.0719L175.307,43.8L175.396,43.787800000000004ZM157.879,21.39583L161.919,21.39583L161.35,25.3958L161.124,26.9818Q161.072,27.339399999999998,160.949,27.6615Q160.679,28.3714,160.07,28.9089Q159.32,29.5695,158.358,29.662Q158.201,29.6771,158.039,29.6771L153.156,29.6771L153.726,29.1979L154.874,28.2318L155.029,27.174500000000002L155.247,25.6771L155.288,25.3958L155.317,25.1979L148.481,25.1979L148.452,25.3958L148.188,27.174500000000002L147.635,30.9115L147.596,31.1745L160.526,31.1745L160.221,33.347300000000004L159.965,35.174499999999995L159.679,37.2161L155.161,42.5938L156.587,45.2734L158.716,49.2734L152.635,49.2734L151.437,47.0339L149.601,49.2734L138.963,49.2734L139.001,49.0084L139.531,45.2734L140.04399999999998,41.661699999999996L140.45,38.8013L140.64,37.462900000000005L140.90699999999998,35.5848L141.04000000000002,34.642700000000005L141.3,32.8147L141.517,31.287L141.764,29.5468L142.308,25.7172L142.765,22.49492L142.921,21.39583L157.879,21.39583ZM145.584,45.2734L145.317,47.112L146.878,45.2734L149.119,42.6328L147.554,39.6667L147.155,38.911500000000004L147.036,38.6854L146.645,37.9453L146.474,39.1299L146.311,40.2495L145.705,44.4347L145.584,45.2734ZM147.369,34.911500000000004L147.036,34.911500000000004L146.958,35.6667L151.515,35.6667L152.843,38.1927L154.966,35.6667L155.042,35.174499999999995L155.083,34.911500000000004L147.369,34.911500000000004ZM124.412,24.3029L124.813,21.317709999999998L106.7271,21.317709999999998L106.4791,23.212400000000002L106.2193,25.1979L112.4172,25.1979L112.3712,25.317700000000002L111.8538,26.6667L111.688,27.099L106.6099,27.099L106.4068,28.5246L106.3109,29.1979L106.1331,30.4458L105.1485,37.3568L104.6734,40.692L104.5786,41.3568L108.4979,41.3568L108.6388,41.2178L109.4484,40.4193L109.5391,39.7906L109.6509,39.015L110.7924,31.099L110.8547,30.6667L118.094,30.6667L118.032,31.099L117.518,34.6667L116.873,39.1388L116.725,40.1649L116.688,40.4193L117.417,41.3568L121.336,41.3568L122.798,31.099L123.069,29.1979L123.368,27.099L116.935,27.099L117.098,26.6667L117.606,25.317700000000002L117.652,25.1979L124.292,25.1979L124.412,24.3029ZM126.792,31.4211L126.656,32.3762L126.676,32.3719L126.81,31.4414L126.792,31.4211ZM131.139,29.4394L130.627,33L130.239,35.6927L128.94,35.9741L127.114,36.3698L126.675,39.379599999999996L126.515,40.4714L127.937,40.167100000000005L129.679,39.7943L129.663,39.9103L129.525,40.9109L129.09699999999998,44.009299999999996L128.923,45.2734L128.885,45.5495L125.278,49.2734L132.44,49.2734Q133.598,49.2734,134.471,48.5312Q134.874,48.1935,135.136,47.7695Q135.451,47.2617,135.565,46.6302L136.723,38.2839L138.149,37.9775L139.874,37.6068L140.285,34.5306L140.434,33.414100000000005L139.039,33.7177L137.322,34.0911L137.327,34.063L137.481,33.0197L137.95,29.861L138.078,29L141.08499999999998,29L141.584,25.6159L141.64499999999998,25.1979L138.598,25.1979L138.626,25L138.66,24.7583L138.676,24.6406L139.15800000000002,21.19792L139.236,20.64062L131.24200000000002,20.64062L131.724,21.19792L131.762,21.24263L132.244,21.799480000000003L131.841,24.6406L131.762,25.1979L128.716,25.1979L128.219,28.5705L128.156,29L131.203,29L131.174,29.1979L131.139,29.4394ZM125.276,42.4392L125.101,43.7065L123.495,45.3652L122.74,44.1388L124.999,42.1793L125.276,42.4392ZM118.549,44.960899999999995L115.49,39.989599999999996L116.12,35.552099999999996L116.246,34.6667L116.688,31.5521L111.8573,31.5521L111.4275,34.6667L110.6984,39.950500000000005L106.2238,44.960899999999995L105.8703,45.3568L102.6516,48.9609L108.7323,48.9609L109.6932,47.7566L112.5344,44.1953L114.301,48.3945L114.54,48.9609L121.011,48.9609L118.793,45.3568L118.549,44.960899999999995ZM102.0255,42.414100000000005L102.5724,43.0445L101.7106,44.0094L101.9351,42.414100000000005L102.0255,42.414100000000005ZM104.3347,35.006L104.3607,34.822900000000004L104.7414,32.1489L104.9302,30.8229L100.6594,30.8229L100.8221,30.6238L100.9385,30.4813L101.1044,30.2783L102.3303,28.778L103.9279,26.8229L104.0277,26.7008L105.1259,25.3568L105.2557,25.1979L105.3977,24.1507L105.7766,21.356769999999997L91.8182,21.356769999999997L91.4073,24.295L91.2974,25.0807L99.5396,25.0807L99.4234,25.3568L99.0187,26.317700000000002L97.6516,28.101599999999998L97.2089,26.9818L92.2479,26.9818L93.2156,29.0807L94.0187,30.8229L90.1776,30.8229L90.035,31.7358L89.7247,33.7217L89.6568,34.1562L92.8469,34.1562L92.779,34.6441L92.7541,34.822900000000004L92.2901,38.1562L91.3376,45L91.2974,45.2891L90.0687,46.7855L89.1493,47.9054L88.2505,49L94.3703,49Q95.451,49,96.3104,48.2708Q97.1698,47.5286,97.3391,46.3698L98.1662,40.492000000000004L99.0578,34.1562L100.412,34.1562L100.397,34.269800000000004L100.3874,34.3434L100.3781,34.414100000000005L100.3716,34.463499999999996L99.9255,37.8554L99.886,38.1562L99.8521,38.414100000000005L103.8495,38.414100000000005L104.3347,35.006ZM84.0224,29.8594L84.771,28.5339L87.0302,24.5339L79.426,24.5339L76.43119999999999,29.8594L77.57650000000001,39.525999999999996L78.5016,47.3333L86.1057,47.3333L85.895,45.5654L85.6288,43.3333L84.0224,29.8594ZM72.1451,20.5625L76.1839,20.5625L75.8913,22.65888L75.6257,24.5625L73.5436,39.4842L72.512,46.8776Q72.34270000000001,47.9974,71.40520000000001,48.7656Q70.46770000000001,49.5339,69.3089,49.5339L61.4312,49.5339L63.8576,47.0292L65.0641,45.7839L65.09870000000001,45.5339L65.5515,42.2654L68.00399999999999,24.5625L68.1408,23.575499999999998L68.34530000000001,22.098959999999998L67.0693,20.5625L72.1451,20.5625ZM67.0693,26.057299999999998L55.2724,26.057299999999998L54.91,28.7029L54.7516,29.8594L58.15,29.8594L58.0794,30.0573L57.9916,30.3032L56.7223,33.8594L53.3407,43.3333L51.913,47.3333L59.5042,47.3333L60.38,44.8702L61.6455,41.311L65.64699999999999,30.0573L67.0693,26.057299999999998ZM53.1361,32.0075L52.2356,34.5304L50.7383,32.8096L50.7812,32.514700000000005L52.3737,31.1336L53.1361,32.0075ZM46.8606,31.6797L47.2031,29.3255L49.8464,29.3255L50.3541,25.7714L50.4062,25.4062L47.763,25.4062L47.7744,25.325499999999998L47.8152,25.036099999999998L47.8764,24.601599999999998L48.3267,21.40625L48.4401,20.60156L40.3542,20.60156L41.031800000000004,21.40625L41.1224,21.51383L41.6042,22.08594L41.2392,24.601599999999998L41.1224,25.4062L37.724000000000004,25.4062L37.7354,25.325499999999998L37.7926,24.923099999999998L37.8327,24.6406L37.9328,23.9361L38.2645,21.60136L38.2923,21.40625L38.3685,20.86964L38.400999999999996,20.64062L30.1198,20.64062L30.7807,21.40625L30.9661,21.62105L31.4349,22.16406L31.0768,24.6406L30.9661,25.4062L28.5182,25.4062L28.0395,28.7573L28.0061,28.9911L27.9583,29.3255L30.4062,29.3255L30.395,29.4062L30.3585,29.6684L29.8489,33.325500000000005L29.5208,35.6797L26.2396,35.6797L26.2381,35.6901L26.2147,35.857600000000005L25.793799999999997,38.8726L25.6797,39.6901L49.1953,39.6901L49.1968,39.6797L49.686,36.175399999999996L49.7552,35.6797L46.2786,35.6797L46.3479,35.204L46.8606,31.6797ZM40.5513,29.4062L40.5625,29.3255L37.164100000000005,29.3255L36.836,31.6797L36.3434,35.215199999999996L36.2786,35.6797L39.677099999999996,35.6797L40.0051,33.325500000000005L40.4978,29.7901L40.5513,29.4062ZM36.1224,40.888000000000005L29.1953,40.888000000000005L27.6113,43.6901L26.9668,44.8304L26.6648,45.3646L24.4036,49.3646L31.6823,49.3646L34.0272,44.888000000000005L34.6546,43.6901L34.849199999999996,43.3187L36.1224,40.888000000000005ZM24.9055,32.1667L24.7161,29.6771L17.95833,29.6771L18.03466,30.6808L18.262520000000002,33.677099999999996L18.29975,34.1667L18.47917,36.525999999999996L25.237000000000002,36.525999999999996L25.0641,34.2524L24.9535,32.7987L24.9328,32.525999999999996L24.9055,32.1667ZM26.0911,24.1667L26.3194,27.163L26.3958,28.1667L19.63802,28.1667L19.44834,25.6771L19.42195,25.3307L19.11719,21.330730000000003L25.875,21.330730000000003L26.0442,23.5519L26.0911,24.1667ZM21.85358,38.1667L25.0026,38.1667L24.2026,40.525999999999996L23.84479,41.581199999999995L23.64628,42.1667L23.29945,43.189499999999995L21.5233,48.4277L21.161459999999998,49.4948L14.403646,49.4948L15.75997,45.4948L17.69212,39.7966L18.244790000000002,38.1667L21.85358,38.1667ZM39.1065,43.6901L38.322900000000004,40.888000000000005L45.4453,40.888000000000005L46.2289,43.6901L46.7226,45.4557L47.8411,49.4557L40.7188,49.4557L39.441500000000005,44.888000000000005L39.1286,43.769400000000005L39.1065,43.6901Z" fill-rule="evenodd" fill="#FFFFFF" fill-opacity="1"/></g></svg>